<svg width="719" height="568" viewBox="0 0 719 568" fill="none" xmlns="http://www.w3.org/2000/svg">
<path d="M332.17 560.367H466.344L426.192 431.995C420.472 413.705 408.481 402.083 395.332 402.083C381.179 402.083 368.481 415.522 363.372 435.91L332.17 560.367Z" fill="#ADCCFF"/>
<path opacity="0.2" d="M364.198 465.757C373.009 469.405 382.558 470.689 391.885 472.092C396.245 472.748 400.672 473.309 404.958 474.387C410.322 475.739 415.591 477.649 420.586 480.094C430.744 485.066 440.902 492.818 442.211 505.248C442.705 509.929 441.804 514.493 438.517 517.901C435.627 520.895 431.572 522.422 427.811 523.83C423.766 525.346 419.472 526.723 415.928 529.329C411.672 532.458 408.722 536.962 406.813 541.948C404.596 547.728 403.545 554.032 403.393 560.367H466.349L426.197 431.995C420.477 413.703 408.486 402.081 395.337 402.081C381.184 402.081 368.486 415.519 363.375 435.907L356.911 461.698C359.127 463.337 361.604 464.684 364.198 465.757Z" fill="#327744"/>
<path d="M298.334 567.147H494.515C494.515 567.147 489.384 524.633 396.424 524.633C303.465 524.633 298.334 567.147 298.334 567.147Z" fill="#91B9FB"/>
<path opacity="0.2" d="M406.897 528.515C414.312 532.14 422.843 533.728 430.962 535.286C435.057 536.072 439.17 536.79 443.249 537.644C446.337 538.292 449.512 538.934 452.432 540.111C455.735 541.444 458.28 544.038 460.173 546.872C462.071 549.711 462.707 553.229 460.276 555.978C457.894 558.674 454.005 559.885 450.523 560.73C446.34 561.747 442.011 562.212 437.708 562.499C434.245 562.73 430.772 562.831 427.3 562.831C417.876 562.829 408.573 561.262 399.276 559.992C394.455 559.333 389.615 558.747 384.745 558.508C380.055 558.277 375.272 558.691 370.614 559.178C360.86 560.195 351.245 562.119 341.658 564.04C336.709 565.031 331.788 566.057 326.882 567.15H494.517C494.517 567.15 489.558 526.115 401.224 524.678C402.755 526.216 404.86 527.517 406.897 528.515Z" fill="#327744"/>
<path d="M718.326 66.2925V394.52C718.326 430.727 689.924 460.182 655.012 460.182H139.363C104.451 460.182 76.0303 430.727 76.0303 394.52V66.2925C76.0303 30.0659 104.448 0.610901 139.363 0.610901H655.012C689.924 0.610901 718.326 30.0659 718.326 66.2925Z" fill="#91B9FB"/>
<path d="M139.364 450.681C109.492 450.681 85.1919 425.488 85.1919 394.52V66.2925C85.1919 35.3136 109.492 10.1119 139.364 10.1119H655.012C684.873 10.1119 709.168 35.3136 709.168 66.2925V394.52C709.168 425.488 684.875 450.681 655.012 450.681H139.364Z" fill="#ADCCFF"/>
<path d="M629.541 376.355H28.7576C26.2588 376.355 24.2354 374.254 24.2354 371.665V53.4283C24.2354 50.8369 26.2615 48.7384 28.7576 48.7384H629.541C632.04 48.7384 634.063 50.8397 634.063 53.4283V371.662C634.066 374.254 632.04 376.355 629.541 376.355Z" fill="#E1ECFD"/>
<path d="M605.498 358.623H4.71217C2.21339 358.623 0.189941 356.522 0.189941 353.933V35.6967C0.189941 33.1053 2.21611 31.0068 4.71217 31.0068H605.496C607.995 31.0068 610.018 33.1081 610.018 35.6967V353.931C610.021 356.522 607.995 358.623 605.498 358.623Z" fill="white"/>
<path d="M567.647 113H43.8257C41.5551 113 39.7163 111.091 39.7163 108.739V67.0587C39.7163 64.7039 41.5578 62.7969 43.8257 62.7969H567.644C569.915 62.7969 571.754 64.7067 571.754 67.0587V108.736C571.756 111.091 569.915 113 567.647 113Z" fill="#F1F6FF"/>
<path opacity="0.5" d="M589.285 126.865H19.9536V170.474H589.285V126.865Z" fill="#F1F6FF"/>
<path opacity="0.5" d="M100.344 88.8578C103.375 84.4749 102.403 78.3512 98.1767 75.2049C93.9505 72.0613 88.0431 73.0669 85.012 77.4526C82.2769 81.4074 82.8092 86.7762 86.0441 90.0972L83.328 94.0209C82.7712 94.1026 82.247 94.404 81.8939 94.9167L76.4591 102.775C75.7747 103.767 75.9919 105.144 76.948 105.857C77.904 106.567 79.2322 106.342 79.9194 105.35L85.3542 97.4912C85.7073 96.9814 85.8159 96.3673 85.7127 95.7955L88.4233 91.8774C92.5001 94.0181 97.5982 92.8266 100.344 88.8578ZM86.2858 78.3991C88.8144 74.7429 93.7414 73.9035 97.2641 76.5259C100.79 79.1484 101.599 84.2552 99.0703 87.9113C96.5416 91.5675 91.6174 92.4097 88.092 89.7873C84.5665 87.1621 83.7571 82.0553 86.2858 78.3991ZM100.344 148.897C103.375 144.514 102.403 138.391 98.1767 135.244C93.9505 132.101 88.0431 133.107 85.012 137.492C82.2769 141.447 82.8092 146.816 86.0441 150.137L83.328 154.061C82.7712 154.142 82.247 154.444 81.8939 154.956L76.4591 162.815C75.7747 163.807 75.9919 165.184 76.948 165.894C77.904 166.604 79.2322 166.378 79.9194 165.387L85.3542 157.528C85.7073 157.018 85.8159 156.404 85.7127 155.832L88.4233 151.914C92.5001 154.058 97.5982 152.869 100.344 148.897ZM86.2858 138.439C88.8144 134.783 93.7414 133.943 97.2641 136.566C100.79 139.188 101.599 144.295 99.0703 147.951C96.5416 151.607 91.6174 152.449 88.092 149.827C84.5665 147.205 83.7571 142.095 86.2858 138.439Z" fill="#ADCCFF"/>
<path d="M138.841 96.8687L129.131 78.092C129.191 80.6018 129.221 83.6692 129.221 86.179V96.8687H126.651V75.4893H130.595L140.305 94.266C140.245 91.7562 140.215 88.6887 140.215 86.179V75.4893H142.725L142.785 96.8687H138.841ZM161.751 89.4634H150.278C150.517 93.8012 152.489 95.2575 154.82 95.2575C156.881 95.2575 158.554 93.9252 158.913 91.5703H161.602C160.974 95.5364 157.957 97.3025 154.7 97.3025C150.577 97.3025 147.5 94.5139 147.5 88.7198C147.5 83.3904 150.697 80.0131 155.029 80.0131C159.391 80.0131 161.811 83.3904 161.811 88.193C161.811 88.4409 161.811 88.8746 161.751 89.4634ZM150.308 87.4184H159.211C158.972 84.0101 157.568 82.0581 154.969 82.0581C152.459 82.0581 150.607 83.9171 150.308 87.4184ZM179.644 89.4634H168.172C168.411 93.8012 170.383 95.2575 172.713 95.2575C174.774 95.2575 176.448 93.9252 176.806 91.5703H179.495C178.868 95.5364 175.85 97.3025 172.593 97.3025C168.47 97.3025 165.393 94.5139 165.393 88.7198C165.393 83.3904 168.59 80.0131 172.922 80.0131C177.284 80.0131 179.704 83.3904 179.704 88.193C179.704 88.4409 179.704 88.8746 179.644 89.4634ZM168.199 87.4184H177.102C176.863 84.0101 175.459 82.0581 172.86 82.0581C170.353 82.0581 168.5 83.9171 168.199 87.4184ZM198.434 96.8687H195.865V94.235L194.67 96.0011C193.773 96.7757 192.1 97.3025 190.487 97.3025C185.856 97.3025 183.287 93.7082 183.287 88.9056C183.287 82.8327 186.932 80.0131 191.025 80.0131C192.339 80.0131 194.012 80.4159 194.819 81.0975L195.865 82.7087V74.095H198.434V96.8687ZM195.865 88.8127V87.9141C195.865 83.6693 193.295 82.0581 191.025 82.0581C188.246 82.0581 186.095 84.2889 186.095 88.5958C186.095 92.3139 187.708 95.2575 190.875 95.2575C193.504 95.2575 195.865 93.5223 195.865 88.8127ZM221.222 94.5139L220.355 96.28C219.28 97.0546 217.905 97.3025 216.382 97.3025C213.514 97.3025 211.273 95.6603 211.273 92.6238C211.273 88.9057 213.962 86.9846 220.176 86.9846H221.192V86.5508C221.192 85.8382 221.192 85.1875 221.132 84.5678C221.013 83.0496 220.176 82.0581 218.055 82.0581C215.904 82.0581 214.828 83.2665 214.649 85.5283H211.96C212.199 82.0271 214.559 80.0131 218.055 80.0131C221.819 80.0131 223.403 81.6553 223.672 84.3509C223.731 85.0016 223.761 85.8072 223.761 86.5198V92.6858C223.761 93.9251 223.821 95.0406 224.06 96.8687H221.491L221.222 94.5139ZM221.192 90.6408V88.9676C216.83 88.6268 214.081 89.5873 214.081 92.4069C214.081 94.3899 215.306 95.2575 217.248 95.2575C219.638 95.2575 221.192 93.6153 221.192 90.6408ZM229.047 99.5333V97.7982H240.997V99.5333H229.047Z" fill="#3C5142"/>
<path d="M135.036 155.627L127.759 141.557C127.803 143.439 127.825 145.737 127.825 147.619V155.627H125.899V139.608H128.854L136.13 153.675C136.087 151.793 136.062 149.495 136.062 147.616V139.608H137.945L137.988 155.627H135.036ZM152.209 150.078H143.613C143.792 153.328 145.27 154.418 147.016 154.418C148.562 154.418 149.814 153.418 150.083 151.655H152.098C151.628 154.627 149.368 155.951 146.927 155.951C143.836 155.951 141.53 153.861 141.53 149.52C141.53 145.526 143.925 142.996 147.174 142.996C150.441 142.996 152.256 145.526 152.256 149.126C152.253 149.312 152.253 149.635 152.209 150.078ZM143.635 148.545H150.305C150.126 145.991 149.075 144.529 147.128 144.529C145.248 144.529 143.86 145.923 143.635 148.545ZM165.621 150.078H157.025C157.204 153.328 158.682 154.418 160.428 154.418C161.974 154.418 163.226 153.418 163.495 151.655H165.51C165.04 154.627 162.78 155.951 160.339 155.951C157.248 155.951 154.942 153.861 154.942 149.52C154.942 145.526 157.337 142.996 160.586 142.996C163.853 142.996 165.667 145.526 165.667 149.126C165.667 149.312 165.667 149.635 165.621 150.078ZM157.049 148.545H163.72C163.541 145.991 162.49 144.529 160.542 144.529C158.66 144.529 157.272 145.923 157.049 148.545ZM179.707 155.627H177.781V153.655L176.885 154.979C176.211 155.559 174.959 155.953 173.75 155.953C170.279 155.953 168.356 153.258 168.356 149.661C168.356 145.112 171.086 142.996 174.152 142.996C175.138 142.996 176.39 143.298 176.996 143.81L177.781 145.019V138.563H179.707V155.627ZM177.784 149.59V148.917C177.784 145.737 175.858 144.529 174.158 144.529C172.077 144.529 170.464 146.199 170.464 149.427C170.464 152.213 171.673 154.418 174.046 154.418C176.013 154.418 177.784 153.117 177.784 149.59ZM196.793 153.861L196.144 155.185C195.338 155.765 194.308 155.951 193.168 155.951C191.019 155.951 189.338 154.72 189.338 152.444C189.338 149.658 191.353 148.219 196.009 148.219H196.772V147.895C196.772 147.359 196.772 146.872 196.726 146.41C196.639 145.272 196.008 144.529 194.42 144.529C192.809 144.529 192.002 145.436 191.867 147.129H189.851C190.03 144.506 191.799 142.996 194.417 142.996C197.236 142.996 198.426 144.227 198.627 146.247C198.67 146.734 198.692 147.34 198.692 147.872V152.492C198.692 153.421 198.738 154.255 198.917 155.627H196.992L196.793 153.861ZM196.772 150.959V149.706C193.502 149.452 191.446 150.171 191.446 152.283C191.446 153.768 192.364 154.418 193.817 154.418C195.607 154.418 196.772 153.187 196.772 150.959ZM220.616 148.683C220.616 149.427 220.616 149.937 220.548 151.123C220.391 153.931 218.622 155.951 214.614 155.951C210.428 155.951 208.703 153.675 208.592 150.193L208.57 149.495H212.601L212.644 150.193C212.78 152.283 213.584 152.886 214.728 152.886C215.847 152.886 216.428 152.142 216.539 150.866C216.583 150.331 216.583 149.821 216.583 149.334V139.608H220.613V148.683H220.616ZM236.29 149.427C236.29 153.396 233.783 155.951 229.864 155.951C225.948 155.951 223.438 153.396 223.438 149.427C223.438 145.433 225.945 142.903 229.864 142.903C233.783 142.903 236.29 145.433 236.29 149.427ZM232.17 149.427C232.17 146.943 231.296 145.737 229.864 145.737C228.433 145.737 227.558 146.943 227.558 149.427C227.558 151.889 228.433 153.12 229.864 153.12C231.296 153.12 232.17 151.889 232.17 149.427ZM252.388 149.148C252.388 153.559 249.792 155.951 246.725 155.951C245.74 155.951 244.577 155.717 243.971 155.345L243.186 154.021V155.624H239.159V138.56H243.186V145.038L244.083 143.67C244.756 143.16 245.919 142.903 247.127 142.903C250.373 142.903 252.388 145.481 252.388 149.148ZM248.268 149.357C248.268 147.036 247.149 145.737 245.74 145.737C244.262 145.737 243.186 146.667 243.186 149.266V149.799C243.186 152.283 244.417 153.12 245.628 153.12C247.195 153.117 248.268 151.889 248.268 149.357Z" fill="#ADCCFF"/>
<path opacity="0.5" d="M100.344 197.484C103.375 193.101 102.403 186.977 98.1767 183.831C93.9505 180.688 88.0431 181.693 85.012 186.079C82.2769 190.034 82.8092 195.402 86.0441 198.723L83.328 202.647C82.7712 202.729 82.247 203.03 81.8939 203.543L76.4591 211.402C75.7747 212.393 75.9919 213.771 76.948 214.483C77.904 215.193 79.2322 214.968 79.9194 213.976L85.3542 206.117C85.7073 205.608 85.8159 204.993 85.7127 204.422L88.4233 200.504C92.5001 202.644 97.5982 201.453 100.344 197.484ZM86.2858 187.025C88.8144 183.369 93.7414 182.53 97.2641 185.152C100.79 187.775 101.599 192.881 99.0703 196.538C96.5416 200.194 91.6174 201.036 88.092 198.414C84.5665 195.788 83.7571 190.681 86.2858 187.025Z" fill="#ADCCFF"/>
<path d="M135.036 204.21L127.759 190.144C127.803 192.022 127.825 194.321 127.825 196.202V204.21H125.899V188.191H128.854L136.13 202.261C136.087 200.383 136.062 198.081 136.062 196.202V188.191H137.945L137.988 204.21H135.036ZM152.209 198.661H143.613C143.792 201.912 145.27 203.002 147.016 203.002C148.562 203.002 149.814 202.002 150.083 200.239H152.098C151.628 203.211 149.368 204.534 146.927 204.534C143.836 204.534 141.53 202.444 141.53 198.104C141.53 194.11 143.925 191.58 147.174 191.58C150.441 191.58 152.256 194.11 152.256 197.709C152.253 197.895 152.253 198.219 152.209 198.661ZM143.635 197.129H150.305C150.126 194.574 149.075 193.112 147.128 193.112C145.248 193.115 143.86 194.507 143.635 197.129ZM165.621 198.661H157.025C157.204 201.912 158.682 203.002 160.428 203.002C161.974 203.002 163.226 202.002 163.495 200.239H165.51C165.04 203.211 162.78 204.534 160.339 204.534C157.248 204.534 154.942 202.444 154.942 198.104C154.942 194.11 157.337 191.58 160.586 191.58C163.853 191.58 165.667 194.11 165.667 197.709C165.667 197.895 165.667 198.219 165.621 198.661ZM157.049 197.129H163.72C163.541 194.574 162.49 193.112 160.542 193.112C158.66 193.115 157.272 194.507 157.049 197.129ZM179.707 204.21H177.781V202.239L176.885 203.563C176.211 204.143 174.959 204.537 173.75 204.537C170.279 204.537 168.356 201.844 168.356 198.247C168.356 193.698 171.086 191.583 174.152 191.583C175.138 191.583 176.39 191.884 176.996 192.397L177.781 193.605V187.149H179.707V204.21ZM177.784 198.174V197.501C177.784 194.318 175.858 193.112 174.158 193.112C172.077 193.112 170.464 194.783 170.464 198.011C170.464 200.797 171.673 203.002 174.046 203.002C176.013 203.002 177.784 201.704 177.784 198.174ZM196.793 202.447L196.144 203.771C195.338 204.351 194.308 204.537 193.167 204.537C191.019 204.537 189.338 203.306 189.338 201.033C189.338 198.247 191.353 196.808 196.009 196.808H196.772V196.484C196.772 195.949 196.772 195.462 196.726 194.997C196.639 193.859 196.008 193.118 194.42 193.118C192.809 193.118 192.002 194.022 191.867 195.718H189.851C190.03 193.093 191.799 191.586 194.417 191.586C197.236 191.586 198.426 192.817 198.627 194.836C198.67 195.324 198.692 195.929 198.692 196.462V201.081C198.692 202.011 198.738 202.844 198.917 204.216H196.992L196.793 202.447ZM196.772 199.546V198.292C193.502 198.036 191.446 198.757 191.446 200.87C191.446 202.354 192.364 203.005 193.817 203.005C195.607 203.002 196.772 201.774 196.772 199.546ZM220.616 197.27C220.616 198.014 220.616 198.523 220.548 199.706C220.391 202.518 218.622 204.534 214.614 204.534C210.428 204.534 208.703 202.261 208.592 198.777L208.57 198.081H212.601L212.644 198.777C212.78 200.867 213.584 201.473 214.728 201.473C215.847 201.473 216.428 200.729 216.539 199.453C216.583 198.918 216.583 198.408 216.583 197.921V188.191H220.613V197.27H220.616ZM236.29 198.011C236.29 201.982 233.783 204.534 229.864 204.534C225.948 204.534 223.438 201.982 223.438 198.011C223.438 194.017 225.945 191.487 229.864 191.487C233.783 191.487 236.29 194.019 236.29 198.011ZM232.17 198.011C232.17 195.529 231.295 194.318 229.864 194.318C228.433 194.318 227.558 195.526 227.558 198.011C227.558 200.473 228.433 201.704 229.864 201.704C231.295 201.704 232.17 200.473 232.17 198.011ZM252.388 197.732C252.388 202.143 249.792 204.534 246.725 204.534C245.74 204.534 244.577 204.303 243.971 203.932L243.186 202.608V204.21H239.159V187.146H243.186V193.625L244.083 192.256C244.756 191.746 245.919 191.49 247.127 191.49C250.373 191.487 252.388 194.064 252.388 197.732ZM248.268 197.943C248.268 195.619 247.149 194.321 245.74 194.321C244.262 194.321 243.186 195.25 243.186 197.85V198.385C243.186 200.87 244.417 201.706 245.628 201.706C247.195 201.704 248.268 200.473 248.268 197.943ZM265.401 204.21L259.828 188.191H264.214L267.908 200.985L271.624 188.191H275.899L270.325 204.21H265.401ZM284.055 202.399L283.561 203.701C282.71 204.258 281.703 204.534 280.606 204.534C278.636 204.534 276.776 203.258 276.776 200.867C276.776 198.219 279.196 196.594 283.246 196.594H284.006V196.408C284.006 196.152 284.006 195.898 283.963 195.501C283.895 194.873 283.403 194.318 282.531 194.318C281.591 194.318 281.054 194.946 280.986 196.014L277.181 196.036C277.202 193.135 279.688 191.487 282.71 191.487C286.494 191.487 287.792 193.228 287.971 195.481C288.015 196.109 288.037 196.828 288.037 197.594V201.075C288.037 202.005 288.083 202.839 288.262 204.21H284.321L284.055 202.399ZM284.009 199.777V198.963C282.194 198.825 280.896 199.312 280.896 200.543C280.896 201.287 281.456 201.704 282.262 201.704C283.069 201.704 284.009 201.075 284.009 199.777ZM302.972 196.549H299.077C298.898 194.924 298.113 194.321 297.108 194.321C295.764 194.321 295.028 195.504 295.028 197.898C295.028 200.546 295.788 201.706 297.154 201.706C298.072 201.706 298.833 201.008 299.056 199.664H303.018C302.57 202.867 300.177 204.54 296.929 204.54C293.504 204.54 290.908 202.242 290.908 198.157C290.908 193.884 293.683 191.493 297.198 191.493C300.712 191.487 302.861 193.763 302.972 196.549ZM312.582 202.399L312.087 203.701C311.237 204.258 310.23 204.534 309.132 204.534C307.163 204.534 305.305 203.258 305.305 200.867C305.305 198.219 307.723 196.594 311.775 196.594H312.535V196.408C312.535 196.152 312.535 195.898 312.492 195.501C312.424 194.873 311.933 194.318 311.061 194.318C310.121 194.318 309.583 194.946 309.515 196.014L305.71 196.036C305.732 193.135 308.217 191.487 311.24 191.487C315.023 191.487 316.322 193.228 316.498 195.481C316.544 196.109 316.566 196.828 316.566 197.594V201.075C316.566 202.005 316.612 202.839 316.792 204.21H312.851L312.582 202.399ZM312.535 199.777V198.963C310.724 198.825 309.426 199.312 309.426 200.543C309.426 201.287 309.985 201.704 310.792 201.704C311.596 201.704 312.535 201.075 312.535 199.777ZM332.238 197.2V204.21H328.207V197.895C328.207 197.501 328.207 196.828 328.164 196.2C328.074 195.017 327.447 194.318 326.238 194.318C325.008 194.318 324.133 195.549 324.133 198.357V204.208H320.105V191.811H324.133V193.738L325.209 192.205C325.947 191.741 326.798 191.484 327.895 191.484C330.358 191.484 331.814 192.693 332.126 194.85C332.216 195.481 332.238 196.202 332.238 197.2ZM347.04 196.549H343.145C342.966 194.924 342.181 194.321 341.176 194.321C339.832 194.321 339.096 195.504 339.096 197.898C339.096 200.546 339.856 201.706 341.222 201.706C342.14 201.706 342.901 201.008 343.124 199.664H347.086C346.638 202.867 344.245 204.54 340.997 204.54C337.572 204.54 334.976 202.242 334.976 198.157C334.976 193.884 337.751 191.493 341.266 191.493C344.778 191.487 346.929 193.763 347.04 196.549ZM354.004 188.817C354.004 190.07 353.176 190.859 351.924 190.859C350.672 190.859 349.843 190.07 349.843 188.817C349.843 187.563 350.672 186.775 351.924 186.775C353.176 186.775 354.004 187.566 354.004 188.817ZM349.908 204.21V191.814H353.936V204.21H349.908ZM369.119 199.059H360.789C360.993 201.123 361.865 201.704 363.005 201.704C364.146 201.704 364.841 201.101 364.999 200.149H368.962C368.266 202.96 366.028 204.537 362.962 204.537C359.537 204.537 356.804 202.425 356.804 198.061C356.804 194.439 359.2 191.49 363.185 191.49C367.169 191.49 369.184 194.648 369.184 197.85C369.184 198.219 369.163 198.639 369.119 199.059ZM360.925 196.504H364.977C364.754 195.042 364.059 194.321 362.986 194.321C361.932 194.321 361.194 194.971 360.925 196.504ZM381.993 195.433H378.03C377.851 194.574 377.449 194.087 376.732 194.087C376.173 194.087 375.768 194.459 375.768 194.994C375.768 195.69 376.306 196.155 378.587 196.735C380.76 197.293 382.303 198.267 382.303 200.659C382.303 203.303 379.907 204.534 377.02 204.534C373.774 204.534 371.558 203.143 371.243 200.357H375.206C375.428 201.309 376.146 201.935 376.996 201.935C377.713 201.935 378.272 201.633 378.272 200.982C378.272 200.194 377.512 199.752 375.385 199.242C373.101 198.684 371.735 197.594 371.735 195.481C371.735 193.019 373.793 191.487 376.971 191.487C379.956 191.487 381.681 193.183 381.993 195.433Z" fill="#ADCCFF"/>
<path opacity="0.5" d="M100.344 246.071C103.375 241.688 102.403 235.564 98.1767 232.418C93.9505 229.274 88.0431 230.28 85.012 234.665C82.2769 238.62 82.8092 243.989 86.0441 247.31L83.328 251.234C82.7712 251.315 82.247 251.617 81.8939 252.129L76.4591 259.988C75.7747 260.98 75.9919 262.357 76.948 263.07C77.904 263.78 79.2322 263.554 79.9194 262.563L85.3542 254.704C85.7073 254.194 85.8159 253.58 85.7127 253.008L88.4233 249.09C92.5001 251.228 97.5982 250.039 100.344 246.071ZM86.2858 235.612C88.8144 231.956 93.7414 231.116 97.2641 233.739C100.79 236.361 101.599 241.468 99.0703 245.124C96.5416 248.78 91.6174 249.623 88.092 247C84.5665 244.375 83.7571 239.265 86.2858 235.612Z" fill="#ADCCFF"/>
<path d="M135.036 252.8L127.759 238.73C127.803 240.612 127.825 242.91 127.825 244.792V252.8H125.899V236.781H128.854L136.13 250.848C136.087 248.969 136.062 246.668 136.062 244.789V236.781H137.945L137.988 252.8H135.036ZM152.209 247.251H143.613C143.792 250.501 145.27 251.591 147.016 251.591C148.562 251.591 149.814 250.591 150.083 248.828H152.098C151.628 251.8 149.368 253.124 146.927 253.124C143.836 253.124 141.53 251.034 141.53 246.693C141.53 242.699 143.925 240.169 147.174 240.169C150.441 240.169 152.256 242.699 152.256 246.299C152.253 246.485 152.253 246.809 152.209 247.251ZM143.635 245.718H150.305C150.126 243.164 149.075 241.702 147.128 241.702C145.248 241.702 143.86 243.096 143.635 245.718ZM165.621 247.251H157.025C157.204 250.501 158.682 251.591 160.428 251.591C161.974 251.591 163.226 250.591 163.495 248.828H165.51C165.04 251.8 162.78 253.124 160.339 253.124C157.248 253.124 154.942 251.034 154.942 246.693C154.942 242.699 157.337 240.169 160.586 240.169C163.853 240.169 165.667 242.699 165.667 246.299C165.667 246.485 165.667 246.809 165.621 247.251ZM157.049 245.718H163.72C163.541 243.164 162.49 241.702 160.542 241.702C158.66 241.702 157.272 243.096 157.049 245.718ZM179.707 252.8H177.781V250.828L176.885 252.152C176.211 252.732 174.959 253.127 173.75 253.127C170.279 253.127 168.356 250.431 168.356 246.834C168.356 242.285 171.086 240.169 174.152 240.169C175.138 240.169 176.39 240.471 176.996 240.983L177.781 242.192V235.736H179.707V252.8ZM177.784 246.763V246.09C177.784 242.91 175.858 241.702 174.158 241.702C172.077 241.702 170.464 243.372 170.464 246.6C170.464 249.386 171.673 251.591 174.046 251.591C176.013 251.591 177.784 250.29 177.784 246.763ZM196.793 251.034L196.144 252.358C195.338 252.938 194.308 253.124 193.167 253.124C191.019 253.124 189.338 251.893 189.338 249.617C189.338 246.831 191.353 245.392 196.009 245.392H196.772V245.068C196.772 244.533 196.772 244.045 196.726 243.581C196.639 242.443 196.008 241.699 194.42 241.699C192.809 241.699 192.002 242.606 191.867 244.299H189.851C190.03 241.676 191.799 240.167 194.417 240.167C197.236 240.167 198.426 241.398 198.627 243.417C198.67 243.904 198.692 244.51 198.692 245.042V249.662C198.692 250.591 198.738 251.425 198.917 252.797H196.992L196.793 251.034ZM196.772 248.132V246.879C193.502 246.625 191.446 247.344 191.446 249.456C191.446 250.941 192.364 251.591 193.817 251.591C195.607 251.591 196.772 250.361 196.772 248.132ZM218.802 252.8L213.182 242.214C213.318 243.84 213.318 245.256 213.318 246.186V252.803H209.287V236.784H214.301L220.165 247.834C220.054 246.209 220.032 244.561 220.032 243.631V236.784H224.063V252.803H218.802V252.8ZM239.245 247.645H230.915C231.119 249.713 231.991 250.293 233.132 250.293C234.272 250.293 234.968 249.687 235.125 248.738H239.088C238.393 251.546 236.155 253.127 233.088 253.127C229.663 253.127 226.931 251.014 226.931 246.648C226.931 243.026 229.326 240.076 233.311 240.076C237.295 240.076 239.311 243.234 239.311 246.44C239.313 246.809 239.292 247.228 239.245 247.645ZM231.054 245.09H235.106C234.883 243.628 234.188 242.91 233.115 242.91C232.059 242.91 231.323 243.558 231.054 245.09ZM256.799 252.8H252.299L250.775 244.442L249.254 252.8H244.754L240.97 240.4H245.403L246.97 249.27L248.401 240.496H253.192L254.713 249.293L256.237 240.4H260.58L256.799 252.8ZM279.709 245.856C279.709 246.6 279.709 247.11 279.641 248.296C279.484 251.104 277.716 253.124 273.707 253.124C269.521 253.124 267.797 250.848 267.685 247.366L267.664 246.668H271.694L271.738 247.366C271.873 249.456 272.677 250.059 273.821 250.059C274.94 250.059 275.521 249.315 275.632 248.039C275.676 247.504 275.676 246.994 275.676 246.507V236.781H279.706V245.856H279.709ZM295.384 246.6C295.384 250.572 292.877 253.124 288.957 253.124C285.041 253.124 282.531 250.569 282.531 246.6C282.531 242.606 285.038 240.076 288.957 240.076C292.877 240.076 295.384 242.606 295.384 246.6ZM291.266 246.6C291.266 244.116 290.391 242.91 288.96 242.91C287.529 242.91 286.654 244.116 286.654 246.6C286.654 249.062 287.529 250.293 288.96 250.293C290.391 250.29 291.266 249.062 291.266 246.6ZM311.482 246.321C311.482 250.732 308.885 253.124 305.819 253.124C304.833 253.124 303.67 252.89 303.065 252.518L302.28 251.194V252.797H298.252V235.733H302.28V242.212L303.176 240.843C303.847 240.333 305.012 240.076 306.221 240.076C309.466 240.076 311.482 242.654 311.482 246.321ZM307.361 246.53C307.361 244.209 306.242 242.91 304.833 242.91C303.355 242.91 302.28 243.84 302.28 246.44V246.972C302.28 249.456 303.51 250.293 304.721 250.293C306.289 250.29 307.361 249.062 307.361 246.53Z" fill="#ADCCFF"/>
<path opacity="0.5" d="M100.344 294.654C103.375 290.271 102.403 284.148 98.1767 281.001C93.9505 277.858 88.0431 278.866 85.012 283.249C82.2769 287.207 82.8092 292.573 86.0441 295.894L83.328 299.818C82.7712 299.899 82.247 300.201 81.8939 300.713L76.4591 308.572C75.7747 309.564 75.9919 310.941 76.948 311.651C77.904 312.361 79.2322 312.135 79.9194 311.144L85.3542 303.285C85.7073 302.775 85.8159 302.161 85.7127 301.589L88.4233 297.671C92.5001 299.815 97.5982 298.626 100.344 294.654ZM86.2858 284.196C88.8144 280.54 93.7414 279.7 97.2641 282.323C100.79 284.945 101.599 290.052 99.0703 293.708C96.5416 297.364 91.6174 298.206 88.092 295.584C84.5665 292.961 83.7571 287.852 86.2858 284.196Z" fill="#ADCCFF"/>
<path d="M135.036 301.384L127.759 287.314C127.803 289.195 127.825 291.494 127.825 293.376V301.384H125.899V285.365H128.854L136.13 299.432C136.087 297.553 136.062 295.251 136.062 293.373V285.365H137.945L137.988 301.384H135.036ZM152.209 295.835H143.613C143.792 299.085 145.27 300.175 147.016 300.175C148.562 300.175 149.814 299.175 150.083 297.412H152.098C151.628 300.384 149.368 301.708 146.927 301.708C143.836 301.708 141.53 299.618 141.53 295.277C141.53 291.283 143.925 288.753 147.174 288.753C150.441 288.753 152.256 291.283 152.256 294.882C152.253 295.068 152.253 295.392 152.209 295.835ZM143.635 294.302H150.305C150.126 291.747 149.075 290.286 147.128 290.286C145.248 290.286 143.86 291.68 143.635 294.302ZM165.621 295.835H157.025C157.204 299.085 158.682 300.175 160.428 300.175C161.974 300.175 163.226 299.175 163.495 297.412H165.51C165.04 300.384 162.78 301.708 160.339 301.708C157.248 301.708 154.942 299.618 154.942 295.277C154.942 291.283 157.337 288.753 160.586 288.753C163.853 288.753 165.667 291.283 165.667 294.882C165.667 295.068 165.667 295.392 165.621 295.835ZM157.049 294.302H163.72C163.541 291.747 162.49 290.286 160.542 290.286C158.66 290.286 157.272 291.68 157.049 294.302ZM179.707 301.384H177.781V299.412L176.885 300.736C176.211 301.316 174.959 301.71 173.75 301.71C170.279 301.71 168.356 299.015 168.356 295.418C168.356 290.869 171.086 288.753 174.152 288.753C175.138 288.753 176.39 289.055 176.996 289.567L177.781 290.776V284.32H179.707V301.384ZM177.784 295.347V294.674C177.784 291.494 175.858 290.286 174.158 290.286C172.077 290.286 170.464 291.956 170.464 295.184C170.464 297.97 171.673 300.175 174.046 300.175C176.013 300.175 177.784 298.874 177.784 295.347ZM196.793 299.618L196.144 300.941C195.338 301.522 194.308 301.708 193.167 301.708C191.019 301.708 189.338 300.477 189.338 298.201C189.338 295.415 191.353 293.976 196.009 293.976H196.772V293.652C196.772 293.116 196.772 292.629 196.726 292.164C196.639 291.026 196.008 290.283 194.42 290.283C192.809 290.283 192.002 291.19 191.867 292.883H189.851C190.03 290.26 191.799 288.75 194.417 288.75C197.236 288.75 198.426 289.981 198.627 292.001C198.67 292.488 198.692 293.094 198.692 293.626V298.246C198.692 299.175 198.738 300.009 198.917 301.381H196.992L196.793 299.618ZM196.772 296.716V295.463C193.502 295.209 191.446 295.928 191.446 298.04C191.446 299.525 192.364 300.175 193.817 300.175C195.607 300.175 196.772 298.944 196.772 296.716ZM226.591 301.384H221.219L219.272 288.917L217.191 301.384H211.797L208.081 285.365H212.356L214.415 298.133L216.452 285.596H222.229L224.177 298.178L226.415 285.362H230.535L226.591 301.384ZM244.262 295.184C244.262 299.156 241.755 301.708 237.839 301.708C233.919 301.708 231.412 299.153 231.412 295.184C231.412 291.19 233.919 288.66 237.839 288.66C241.755 288.66 244.262 291.19 244.262 295.184ZM240.142 295.184C240.142 292.7 239.27 291.494 237.836 291.494C236.404 291.494 235.53 292.7 235.53 295.184C235.53 297.646 236.404 298.877 237.836 298.877C239.27 298.874 240.142 297.646 240.142 295.184ZM255.278 288.731V292.142C252.255 291.933 251.158 293.094 251.158 296.832V301.381H247.127V288.981H251.158V291.491L252.008 289.75C252.657 289.007 253.597 288.657 254.358 288.657C254.743 288.66 254.988 288.683 255.278 288.731ZM261.685 297.761V301.384H257.655V284.32H261.685V294.187L265.893 288.987H270.616L265.559 294.677L270.684 301.386H265.738L262.536 296.789L261.685 297.761Z" fill="#ADCCFF"/>
</svg>
