<svg width="17" height="81" viewBox="0 0 17 81" fill="none" xmlns="http://www.w3.org/2000/svg">
<path d="M14.9765 69.932C14.2323 69.932 13.6294 70.5573 13.6294 71.3262C13.6294 72.098 14.2323 72.7205 14.9765 72.7205C15.718 72.7205 16.3183 72.0952 16.3183 71.3262C16.3183 70.5545 15.718 69.932 14.9765 69.932ZM1.50759 77.7541C0.760671 77.7541 0.157715 78.3795 0.157715 79.1484C0.157715 79.9202 0.760671 80.5427 1.50759 80.5427C2.24364 80.5427 2.84665 79.9174 2.84665 79.1484C2.84665 78.3766 2.24635 77.7541 1.50759 77.7541ZM1.50493 63.7829C0.763451 63.7829 0.157715 64.4083 0.157715 65.1772C0.157715 65.949 0.763451 66.5743 1.50493 66.5743C2.2437 66.5743 2.84937 65.949 2.84937 65.1772C2.84937 64.4054 2.24642 63.7829 1.50493 63.7829ZM1.50493 49.8117C0.763451 49.8117 0.157715 50.437 0.157715 51.2032C0.157715 51.975 0.763451 52.5975 1.50493 52.5975C2.2437 52.5975 2.84937 51.9721 2.84937 51.2032C2.84937 50.4342 2.24642 49.8117 1.50493 49.8117ZM14.9765 55.9607C14.2351 55.9607 13.6294 56.5861 13.6294 57.355C13.6294 58.1268 14.2351 58.7521 14.9765 58.7521C15.7153 58.7521 16.321 58.1268 16.321 57.355C16.3183 56.5832 15.7153 55.9607 14.9765 55.9607ZM14.9765 41.9895C14.2351 41.9895 13.6294 42.6148 13.6294 43.381C13.6294 44.1528 14.2351 44.7753 14.9765 44.7753C15.7153 44.7753 16.321 44.15 16.321 43.381C16.3183 42.6148 15.7153 41.9895 14.9765 41.9895ZM14.9765 28.0183C14.2323 28.0183 13.6294 28.6436 13.6294 29.4126C13.6294 30.1844 14.2323 30.8069 14.9765 30.8069C15.718 30.8069 16.3183 30.1816 16.3183 29.4126C16.3183 28.6436 15.718 28.0183 14.9765 28.0183ZM1.50759 35.8405C0.760671 35.8405 0.157715 36.4658 0.157715 37.2348C0.157715 38.0066 0.760671 38.6291 1.50759 38.6291C2.24364 38.6291 2.84665 38.0038 2.84665 37.2348C2.84665 36.463 2.24635 35.8405 1.50759 35.8405ZM14.9765 14.0471C14.2323 14.0471 13.6294 14.6724 13.6294 15.4414C13.6294 16.2132 14.2323 16.8357 14.9765 16.8357C15.718 16.8357 16.3183 16.2104 16.3183 15.4414C16.3183 14.6724 15.718 14.0471 14.9765 14.0471ZM1.50759 21.8693C0.760671 21.8693 0.157715 22.4946 0.157715 23.2636C0.157715 24.0354 0.760671 24.6579 1.50759 24.6579C2.24364 24.6579 2.84665 24.0325 2.84665 23.2636C2.84665 22.4918 2.24635 21.8693 1.50759 21.8693ZM14.9765 0.0758667C14.2323 0.0758667 13.6294 0.701178 13.6294 1.47016C13.6294 2.24196 14.2323 2.86445 14.9765 2.86727C15.718 2.86727 16.3183 2.24196 16.3183 1.47298C16.3183 0.70118 15.718 0.0758667 14.9765 0.0758667ZM1.50759 7.89803C0.760671 7.89803 0.157715 8.52338 0.157715 9.29236C0.157715 10.0642 0.760671 10.6866 1.50759 10.6866C2.24364 10.6866 2.84665 10.0613 2.84665 9.29236C2.84665 8.52056 2.24635 7.89803 1.50759 7.89803Z" fill="#ADCCFF"/>
</svg>
