<svg width="70" height="73" viewBox="0 0 70 73" fill="none" xmlns="http://www.w3.org/2000/svg">
<path d="M61.6546 11.7928C61.6546 13.4181 60.3835 14.7363 58.8163 14.7363C57.2491 14.7363 55.978 13.4181 55.978 11.7928C55.978 10.1675 57.2491 8.84924 58.8163 8.84924C60.3835 8.84924 61.6546 10.1675 61.6546 11.7928Z" fill="#ADCCFF"/>
<path d="M13.852 10.6351C15.4195 10.6351 16.6902 9.31724 16.6902 7.69157C16.6902 6.06591 15.4195 4.74805 13.852 4.74805C12.2844 4.74805 11.0137 6.06591 11.0137 7.69157C11.0137 9.31724 12.2844 10.6351 13.852 10.6351Z" fill="#ADCCFF"/>
<path d="M41.547 69.7113C41.547 71.4577 40.1809 72.8746 38.4969 72.8746C36.8129 72.8746 35.4468 71.4577 35.4468 69.7113C35.4468 67.9649 36.8129 66.5481 38.4969 66.5481C40.1809 66.5481 41.547 67.9649 41.547 69.7113Z" fill="#ADCCFF"/>
<path d="M34.9401 4.74805C35.4752 5.13676 35.831 5.52266 36.1162 5.91138C36.4285 6.30009 36.6295 6.68599 36.787 7.07471C37.0641 7.84932 37.2949 8.62675 36.9364 9.40136C36.5833 10.176 35.7088 10.9534 35.5404 11.728C35.3502 12.5026 35.6436 13.2801 36.1542 14.0547C36.6811 14.8293 37.0994 15.6067 37.2379 16.3813C37.4443 17.1559 37.6643 17.9334 37.5747 18.708C37.4823 19.4826 37.227 20.26 36.8088 21.0347C36.4068 21.8093 35.8228 22.5867 34.9374 23.3613H34.3942C33.5088 22.5867 32.9248 21.8093 32.5228 21.0347C32.1046 20.26 31.8492 19.4826 31.7569 18.708C31.6673 17.9334 31.8873 17.1559 32.0937 16.3813C32.2295 15.6067 32.6478 14.8293 33.1774 14.0547C33.688 13.2801 33.9813 12.5026 33.7912 11.728C33.6228 10.9534 32.751 10.176 32.3952 9.40136C32.0394 8.62675 32.2702 7.84932 32.5446 7.07471C32.7021 6.68599 32.9058 6.30009 33.2154 5.91138C33.5006 5.52266 33.8591 5.13676 34.3915 4.74805H34.9401Z" fill="#91B9FB"/>
<path d="M39.0356 4.74807C39.0356 7.24937 37.0801 9.27745 34.6682 9.27745C32.2563 9.27745 30.3008 7.24937 30.3008 4.74807C30.3008 2.24677 32.2563 0.218689 34.6682 0.218689C37.0801 0.218689 39.0356 2.24677 39.0356 4.74807Z" fill="#ADCCFF"/>
<path d="M65.6088 30.6934C65.234 31.2483 64.8619 31.6173 64.4871 31.9131C64.1123 32.237 63.7402 32.4454 63.3654 32.6088C62.6185 32.8961 61.8688 33.1355 61.1219 32.7637C60.375 32.3975 59.6254 31.4934 58.8784 31.3159C58.1315 31.1187 57.3819 31.4229 56.635 31.9525C55.8881 32.4989 55.1384 32.9327 54.3915 33.0764C53.6446 33.2905 52.895 33.5186 52.1481 33.4257C51.4011 33.3299 50.6515 33.0651 49.9046 32.6313C49.1577 32.2144 48.408 31.6088 47.6611 30.6906V30.1272C48.408 29.2089 49.1577 28.6033 49.9046 28.1865C50.6515 27.7527 51.4011 27.4879 52.1481 27.3921C52.895 27.2992 53.6446 27.5273 54.3915 27.7414C55.1384 27.8822 55.8881 28.316 56.635 28.8653C57.3819 29.3949 58.1315 29.6991 58.8784 29.5019C59.6254 29.3273 60.375 28.4231 61.1219 28.0541C61.8688 27.6851 62.6185 27.9245 63.3654 28.209C63.7402 28.3724 64.1123 28.5836 64.4871 28.9047C64.8619 29.2005 65.234 29.5695 65.6088 30.1244V30.6934Z" fill="#91B9FB"/>
<path d="M65.6101 34.9383C68.0222 34.9383 69.9775 32.9104 69.9775 30.4089C69.9775 27.9074 68.0222 25.8795 65.6101 25.8795C63.198 25.8795 61.2427 27.9074 61.2427 30.4089C61.2427 32.9104 63.198 34.9383 65.6101 34.9383Z" fill="#ADCCFF"/>
<path d="M2.69189 34.4087C3.06671 33.8538 3.43881 33.4848 3.81363 33.1891C4.18844 32.8651 4.56054 32.6567 4.93536 32.4933C5.68228 32.206 6.43191 31.9666 7.17883 32.3384C7.92574 32.7046 8.67538 33.6088 9.42229 33.7862C10.1692 33.9834 10.9188 33.6792 11.6658 33.1496C12.4127 32.6032 13.1623 32.1694 13.9092 32.0257C14.6561 31.8117 15.4058 31.5835 16.1527 31.6764C16.8996 31.7722 17.6492 32.037 18.3961 32.4708C19.1431 32.8877 19.8927 33.4933 20.6396 34.4115V34.9749C19.8927 35.8932 19.1431 36.4988 18.3961 36.9156C17.6492 37.3494 16.8996 37.6142 16.1527 37.71C15.4058 37.8029 14.6561 37.5748 13.9092 37.3607C13.1623 37.2199 12.4127 36.7861 11.6658 36.2368C10.9188 35.7073 10.1692 35.403 9.42229 35.6002C8.67538 35.7749 7.92574 36.679 7.17883 37.048C6.43191 37.417 5.68228 37.1776 4.93536 36.8931C4.56054 36.7297 4.18844 36.5185 3.81363 36.1974C3.43881 35.9016 3.06671 35.5298 2.69189 34.9777V34.4087ZM7.02401 18.7446C7.60524 18.4376 8.10228 18.2939 8.56673 18.2122C9.04204 18.1108 9.46846 18.108 9.87315 18.1446C10.6635 18.2573 11.4322 18.4094 11.9238 19.0995C12.4181 19.7868 12.668 20.9502 13.2492 21.4684C13.8196 22.0064 14.6181 22.1022 15.5198 21.998C16.427 21.8797 17.2853 21.86 18.0105 22.0994C18.7682 22.274 19.5315 22.4374 20.1507 22.8853C20.7673 23.3331 21.3077 23.9303 21.7722 24.6796C22.2421 25.4119 22.6305 26.3105 22.8749 27.4851L22.6196 27.9836C21.544 28.4287 20.6097 28.6005 19.7596 28.6033C18.9013 28.6231 18.1218 28.4907 17.4184 28.2118C16.7149 27.9301 16.1581 27.364 15.5959 26.8119C15.0011 26.3217 14.5366 25.5753 14.1238 24.7275C13.7028 23.8937 13.1813 23.2627 12.4317 23.0712C11.6929 22.8599 10.6228 23.2965 9.79439 23.2543C8.96599 23.2177 8.41462 22.6402 7.88499 22.0233C7.62968 21.6966 7.39339 21.3304 7.2087 20.8628C7.01314 20.4178 6.85018 19.9108 6.77142 19.2376L7.02401 18.7446ZM61.6222 46.9434C61.2012 47.1659 60.8427 47.2701 60.5059 47.3265C60.1609 47.3997 59.854 47.4025 59.5607 47.3743C58.9903 47.2927 58.4335 47.1828 58.075 46.6842C57.7165 46.1857 57.5372 45.3435 57.1162 44.9688C56.7034 44.5801 56.1249 44.5097 55.473 44.5857C54.8157 44.6731 54.1965 44.6843 53.6723 44.5125C53.1236 44.3857 52.5723 44.2674 52.1241 43.9435C51.6787 43.6196 51.2849 43.1858 50.9508 42.645C50.6086 42.1154 50.3315 41.4647 50.1523 40.6141L50.337 40.2535C51.1165 39.9296 51.7928 39.8085 52.4066 39.8028C53.0259 39.7888 53.5908 39.8845 54.1014 40.0873C54.6093 40.293 55.014 40.7014 55.4214 41.1014C55.8533 41.4563 56.1873 41.9971 56.4861 42.6084C56.7903 43.2112 57.1678 43.6675 57.7111 43.8055C58.2461 43.9576 59.0202 43.6421 59.6177 43.6731C60.218 43.7013 60.6172 44.1182 61.0002 44.5632C61.1849 44.7998 61.356 45.0646 61.4891 45.4026C61.6303 45.7237 61.7498 46.0927 61.8069 46.5772L61.6222 46.9434ZM50.1197 10.038C50.4157 10.6407 50.5542 11.1562 50.633 11.6379C50.7308 12.1308 50.7335 12.5731 50.6982 12.9928C50.5896 13.8124 50.4429 14.6096 49.7775 15.1194C49.1147 15.6321 47.993 15.8912 47.4933 16.494C46.9745 17.0855 46.8821 17.9137 46.9826 18.8488C47.0967 19.7896 47.1157 20.6797 46.8849 21.4318C46.7165 22.2177 46.5589 23.0092 46.1271 23.6514C45.6952 24.2909 45.1194 24.8514 44.3969 25.3331C43.6908 25.8204 42.8244 26.2232 41.6918 26.4767L41.211 26.2119C40.7819 25.0964 40.6162 24.1275 40.6135 23.2458C40.5945 22.3557 40.7221 21.5473 40.991 20.8178C41.2626 20.0882 41.8086 19.5108 42.3409 18.9277C42.8135 18.3108 43.5332 17.8292 44.3508 17.401C45.1547 16.9644 45.7631 16.4236 45.9478 15.6462C46.1515 14.88 45.7305 13.7702 45.7713 12.9111C45.8066 12.052 46.3634 11.4801 46.9582 10.9309C47.2733 10.6661 47.6263 10.421 48.0772 10.2295C48.5063 10.0267 48.9952 9.85769 49.6444 9.776L50.1197 10.038Z" fill="#91B9FB"/>
<path d="M4.87572 39.2198C7.28778 39.2198 9.24313 37.1919 9.24313 34.6904C9.24313 32.1889 7.28778 30.161 4.87572 30.161C2.46367 30.161 0.508301 32.1889 0.508301 34.6904C0.508301 37.1919 2.46367 39.2198 4.87572 39.2198Z" fill="#ADCCFF"/>
<path d="M53.6179 61.6328C52.966 61.6666 52.4554 61.5878 51.9991 61.4666C51.5238 61.3596 51.1354 61.1822 50.7796 60.9765C50.1033 60.5399 49.4596 60.0752 49.2803 59.2386C49.1011 58.402 49.3265 57.233 49.0006 56.5147C48.691 55.7824 48.0011 55.3571 47.1374 55.0726C46.2628 54.7965 45.4724 54.4529 44.9048 53.929C44.2828 53.4501 43.65 52.9769 43.2588 52.3093C42.8704 51.6389 42.6124 50.8643 42.482 49.9855C42.3408 49.1179 42.3408 48.132 42.5771 46.9574L43.0062 46.611C44.1633 46.6588 45.084 46.8983 45.8608 47.2532C46.6512 47.5968 47.3112 48.0475 47.8435 48.5996C48.3732 49.1545 48.6611 49.9066 48.9571 50.6502C49.3102 51.3488 49.4379 52.2276 49.4841 53.1769C49.5411 54.1149 49.7692 54.9148 50.3803 55.4049C50.9724 55.9091 52.1213 55.9655 52.8601 56.3514C53.6016 56.7345 53.8786 57.495 54.1204 58.2837C54.2263 58.6893 54.2969 59.1259 54.2806 59.6301C54.286 60.1174 54.2344 60.6526 54.0416 61.2976L53.6179 61.6328Z" fill="#91B9FB"/>
<path d="M50.3882 64.244C48.9053 62.2723 49.2448 59.4245 51.146 57.8893C53.0473 56.3514 55.7932 56.7035 57.2735 58.6752C58.7564 60.647 58.4169 63.4947 56.5157 65.0299C54.6144 66.5678 51.8712 66.2157 50.3882 64.244Z" fill="#ADCCFF"/>
<path d="M12.0598 61.9793C11.7774 61.1005 11.6877 60.3709 11.6796 59.7005C11.6416 59.0104 11.7258 58.4104 11.8561 57.8499C12.163 56.7598 12.5188 55.7091 13.5211 55.1571C14.5233 54.6021 16.0932 54.4838 16.8917 53.7712C17.712 53.0783 17.9999 51.9741 18.046 50.684C18.0759 49.3827 18.2253 48.1714 18.6843 47.2025C19.0673 46.1715 19.4366 45.1321 20.1455 44.3519C20.8571 43.5745 21.748 42.9351 22.8208 42.4337C23.8747 41.921 25.1295 41.5577 26.7157 41.4534L27.3159 41.9154C27.6799 43.5209 27.7125 44.8702 27.5468 46.0673C27.3974 47.2785 27.0688 48.3489 26.5581 49.2813C26.0448 50.2108 25.1947 50.8812 24.3554 51.5628C23.5949 52.3008 22.5221 52.8022 21.3297 53.2107C20.1537 53.6332 19.2221 54.2388 18.8201 55.2556C18.3937 56.2528 18.7468 57.8471 18.5268 59.002C18.3095 60.1596 17.4431 60.8188 16.5277 61.4413C16.047 61.7342 15.5201 61.9906 14.871 62.1567C14.249 62.3427 13.5509 62.4694 12.6574 62.4441L12.0598 61.9793Z" fill="#91B9FB"/>
<path d="M8.85186 56.6387C10.821 53.881 14.5719 53.3008 17.2309 55.343C19.8899 57.3851 20.4494 61.2751 18.4803 64.0327C16.5111 66.7903 12.7603 67.3706 10.1013 65.3284C7.43952 63.2863 6.88272 59.3963 8.85186 56.6387Z" fill="#ADCCFF"/>
<path d="M49.5403 52.2998C58.1242 43.3972 58.124 28.9635 49.5397 20.0612C40.9554 11.1588 27.0378 11.1591 18.4538 20.0617C9.86983 28.9643 9.87007 43.3981 18.4544 52.3004C27.0386 61.2027 40.9563 61.2025 49.5403 52.2998Z" fill="#ADCCFF"/>
<path d="M17.7248 26.7358C19.1345 24.7641 21.8179 24.3472 23.7192 25.8091C25.6204 27.271 26.0224 30.054 24.6128 32.0257C23.2031 33.9975 20.5197 34.4144 18.6184 32.9524C16.7172 31.4934 16.3152 28.7076 17.7248 26.7358ZM31.8673 43.3182C32.7392 42.0957 34.4014 41.8394 35.5802 42.7436C36.759 43.6477 37.0061 45.3716 36.1343 46.5941C35.2624 47.8166 33.6002 48.0729 32.4214 47.1687C31.2427 46.2645 30.9928 44.5407 31.8673 43.3182ZM40.6429 32.7496C42.0987 30.7131 44.8691 30.285 46.8355 31.7919C48.7992 33.3017 49.2121 36.1748 47.759 38.2142C46.3032 40.2507 43.5328 40.6789 41.5664 39.1719C39.6027 37.6593 39.1871 34.7862 40.6429 32.7496ZM34.0103 24.5303C34.7301 23.5219 36.1017 23.3106 37.074 24.0571C38.0464 24.8035 38.2501 26.226 37.5303 27.2344C36.8106 28.2428 35.4389 28.4541 34.4666 27.7076C33.4943 26.9612 33.2906 25.5387 34.0103 24.5303Z" fill="#91B9FB"/>
</svg>
