<svg width="63" height="66" viewBox="0 0 63 66" fill="none" xmlns="http://www.w3.org/2000/svg">
<path d="M55.2067 11.003C55.2067 12.4621 54.066 13.648 52.6564 13.648C51.2467 13.648 50.106 12.4649 50.106 11.003C50.106 9.54393 51.2467 8.35806 52.6564 8.35806C54.066 8.35806 55.2067 9.54111 55.2067 11.003Z" fill="#ADCCFF"/>
<path d="M12.2638 9.96356C13.6723 9.96356 14.8141 8.7794 14.8141 7.31863C14.8141 5.85787 13.6723 4.67368 12.2638 4.67368C10.8553 4.67368 9.71338 5.85787 9.71338 7.31863C9.71338 8.7794 10.8553 9.96356 12.2638 9.96356Z" fill="#ADCCFF"/>
<path d="M34.4061 65.8768C35.9196 65.8768 37.1465 64.6043 37.1465 63.0346C37.1465 61.4649 35.9196 60.1924 34.4061 60.1924C32.8925 60.1924 31.6655 61.4649 31.6655 63.0346C31.6655 64.6043 32.8925 65.8768 34.4061 65.8768Z" fill="#ADCCFF"/>
<path d="M31.2077 4.6738C31.6885 5.02308 32.0089 5.36953 32.2643 5.71881C32.544 6.06809 32.726 6.41454 32.8672 6.76382C33.1144 7.45957 33.3235 8.15814 33.003 8.85389C32.6852 9.54963 31.9003 10.2482 31.7509 10.9439C31.5798 11.6397 31.8433 12.3382 32.3023 13.034C32.7776 13.7297 33.1524 14.4283 33.2746 15.124C33.4593 15.8198 33.6576 16.5184 33.5761 17.2141C33.4946 17.9098 33.2638 18.6084 32.889 19.3041C32.5277 19.9999 32.0035 20.6984 31.2077 21.3941H30.7188C29.923 20.6984 29.3988 19.9999 29.0376 19.3041C28.6601 18.6084 28.4319 17.9098 28.3504 17.2141C28.2717 16.5184 28.4672 15.8198 28.6519 15.124C28.7741 14.4283 29.1517 13.7297 29.6243 13.034C30.0833 12.3382 30.3467 11.6397 30.1756 10.9439C30.0235 10.2482 29.2413 9.54963 28.9235 8.85389C28.603 8.15814 28.8121 7.45957 29.0593 6.76382C29.2005 6.41454 29.3825 6.06809 29.6622 5.71881C29.9203 5.36953 30.2381 5.02308 30.7188 4.6738H31.2077Z" fill="#91B9FB"/>
<path d="M34.888 4.67377C34.888 6.92156 33.1306 8.74118 30.9659 8.74118C28.8012 8.74118 27.0439 6.91874 27.0439 4.67377C27.0439 2.42598 28.8012 0.606323 30.9659 0.606323C33.1306 0.606323 34.888 2.4288 34.888 4.67377Z" fill="#ADCCFF"/>
<path d="M58.7622 27.9825C58.4254 28.4811 58.0913 28.8135 57.7545 29.0782C57.4178 29.3684 57.0837 29.5571 56.7469 29.7036C56.076 29.9599 55.4024 30.1768 54.7315 29.8444C54.0607 29.5148 53.3871 28.7008 52.7162 28.5459C52.0454 28.3684 51.3718 28.6417 50.701 29.1177C50.0301 29.6106 49.3565 29.9993 48.6856 30.1261C48.0147 30.3176 47.3412 30.5233 46.6703 30.4388C45.9994 30.3543 45.3259 30.1148 44.655 29.7261C43.9841 29.3515 43.3105 28.8079 42.6396 27.9825V27.4755C43.3105 26.6502 43.9841 26.1066 44.655 25.7319C45.3259 25.3404 45.9994 25.1038 46.6703 25.0193C47.3412 24.9376 48.0147 25.1404 48.6856 25.3319C49.3565 25.4587 50.0301 25.8502 50.701 26.3403C51.3718 26.8164 52.0454 27.0896 52.7162 26.9122C53.3871 26.7544 54.0607 25.9432 54.7315 25.6136C55.4024 25.2812 56.076 25.4953 56.7469 25.7544C57.0837 25.9009 57.4178 26.0897 57.7545 26.3798C58.0913 26.6474 58.4254 26.9769 58.7622 27.4755V27.9825Z" fill="#91B9FB"/>
<path d="M58.7623 31.7965C56.5949 31.7965 54.8403 29.974 54.8403 27.729C54.8403 25.484 56.5976 23.6616 58.7623 23.6616C60.9297 23.6616 62.6843 25.484 62.6843 27.729C62.6843 29.974 60.927 31.7965 58.7623 31.7965Z" fill="#ADCCFF"/>
<path d="M2.23828 31.3205C2.57507 30.8219 2.9092 30.4895 3.24599 30.2248C3.58279 29.9346 3.91685 29.7459 4.25364 29.5995C4.92451 29.3431 5.59807 29.1262 6.26893 29.4586C6.9398 29.7882 7.61336 30.6022 8.28423 30.7571C8.95509 30.9346 9.62872 30.6614 10.2996 30.1854C10.9705 29.6952 11.644 29.3037 12.3149 29.1769C12.9857 28.9854 13.6593 28.7797 14.3302 28.8642C15.001 28.9487 15.6747 29.1882 16.3455 29.5769C17.0164 29.9515 17.69 30.4951 18.3608 31.3205V31.8275C17.69 32.6528 17.0164 33.1964 16.3455 33.5711C15.6747 33.9626 15.001 34.1992 14.3302 34.2837C13.6593 34.3654 12.9857 34.1626 12.3149 33.9711C11.644 33.8443 10.9705 33.4528 10.2996 32.9627C9.62872 32.4866 8.95509 32.2134 8.28423 32.3909C7.61336 32.5486 6.9398 33.3599 6.26893 33.6894C5.59807 34.0218 4.92451 33.8077 4.25364 33.5486C3.91685 33.4021 3.58279 33.2134 3.24599 32.9233C2.9092 32.6557 2.57507 32.3261 2.23828 31.8275V31.3205ZM6.13041 17.2479C6.65189 16.9718 7.10007 16.8423 7.51563 16.7718C7.94476 16.6789 8.32496 16.6761 8.68892 16.7099C9.39781 16.8113 10.0904 16.9465 10.5331 17.569C10.9758 18.1887 11.2013 19.2309 11.7255 19.6984C12.2388 20.1829 12.9559 20.2675 13.7653 20.1745C14.5801 20.0675 15.3514 20.0505 16.0006 20.2646C16.6823 20.4224 17.3667 20.5688 17.9208 20.9688C18.4749 21.3716 18.9611 21.9069 19.3766 22.5801C19.8003 23.2392 20.148 24.0476 20.368 25.1011L20.1371 25.5489C19.1702 25.9489 18.331 26.1038 17.5678 26.1066C16.7964 26.1235 16.0957 26.0052 15.4655 25.7545C14.8354 25.501 14.3329 24.994 13.8277 24.4954C13.2927 24.056 12.8744 23.3856 12.505 22.6223C12.1275 21.873 11.6576 21.3068 10.984 21.135C10.3186 20.9463 9.35978 21.335 8.61558 21.3012C7.87138 21.2674 7.3771 20.7491 6.89908 20.1942C6.66821 19.9012 6.45908 19.5717 6.2934 19.152C6.11686 18.752 5.97014 18.2957 5.89952 17.6929L6.13041 17.2479ZM55.177 42.5792C54.7995 42.7792 54.4762 42.8721 54.1747 42.9256C53.8651 42.9932 53.5881 42.9932 53.3246 42.9707C52.8113 42.8975 52.3116 42.7989 51.9911 42.351C51.6706 41.9031 51.5076 41.1483 51.13 40.8102C50.7579 40.461 50.2392 40.399 49.6552 40.4666C49.0658 40.5427 48.5091 40.5567 48.0365 40.4018C47.5449 40.2891 47.0478 40.1821 46.6458 39.892C46.2438 39.599 45.8935 39.2131 45.592 38.7258C45.2851 38.2497 45.0352 37.6639 44.8749 36.9005L45.0406 36.5766C45.7387 36.2865 46.3471 36.1767 46.9012 36.1738C47.458 36.1598 47.9658 36.247 48.4221 36.4273C48.8784 36.6104 49.2424 36.9794 49.6063 37.3371C49.9947 37.6554 50.2962 38.1399 50.5624 38.692C50.8367 39.2328 51.1762 39.644 51.6624 39.768C52.1431 39.9032 52.8384 39.6215 53.3762 39.6469C53.914 39.6722 54.2725 40.0469 54.6175 40.4469C54.7831 40.6609 54.9379 40.8975 55.0574 41.2017C55.1851 41.4919 55.291 41.8214 55.3426 42.258L55.177 42.5792ZM44.8478 9.42569C45.114 9.96651 45.2389 10.4313 45.3068 10.8622C45.3964 11.3073 45.3992 11.7016 45.3666 12.0791C45.2688 12.8143 45.1384 13.5325 44.5381 13.9917C43.9406 14.4508 42.9357 14.6846 42.4849 15.2282C42.0177 15.7606 41.9362 16.5042 42.0258 17.3436C42.129 18.1887 42.1453 18.9886 41.9389 19.6619C41.7868 20.3689 41.6456 21.0787 41.2599 21.6562C40.8715 22.2308 40.3555 22.7349 39.7063 23.1659C39.0708 23.6053 38.2912 23.9659 37.2754 24.1941L36.8436 23.9546C36.4579 22.9518 36.3085 22.0815 36.3058 21.29C36.2895 20.49 36.4036 19.7633 36.6453 19.1098C36.8898 18.4563 37.3787 17.9352 37.8594 17.4112C38.2831 16.8563 38.9295 16.4225 39.6656 16.0394C40.388 15.6479 40.934 15.1607 41.0996 14.4621C41.2816 13.772 40.9068 12.7776 40.9394 12.0058C40.972 11.234 41.4718 10.7214 42.0041 10.2256C42.2866 9.98622 42.6043 9.76933 43.009 9.59751C43.3947 9.41442 43.8347 9.26229 44.4159 9.18906L44.8478 9.42569Z" fill="#91B9FB"/>
<path d="M4.1998 27.5067C6.36722 27.5067 8.12184 29.3291 8.12184 31.5741C8.12184 33.8219 6.3645 35.6415 4.1998 35.6415C2.03239 35.6415 0.277832 33.819 0.277832 31.5741C0.277832 29.3263 2.0351 27.5067 4.1998 27.5067Z" fill="#ADCCFF"/>
<path d="M47.9882 55.7785C47.4042 55.8095 46.9452 55.739 46.5351 55.6292C46.1086 55.5334 45.7583 55.3728 45.4405 55.1897C44.8321 54.7982 44.2536 54.3814 44.0933 53.6265C43.9304 52.8744 44.1368 51.8237 43.8435 51.1787C43.5637 50.5195 42.9444 50.1393 42.1676 49.883C41.38 49.6351 40.6711 49.3252 40.1605 48.8548C39.601 48.4238 39.0333 47.9985 38.683 47.3986C38.3353 46.7958 38.1017 46.1001 37.9849 45.3114C37.8573 44.5311 37.8573 43.6466 38.0718 42.5903L38.4575 42.2777C39.4978 42.3199 40.3234 42.5368 41.0242 42.8551C41.7331 43.165 42.3279 43.5677 42.8059 44.0663C43.2812 44.5649 43.5392 45.2409 43.8081 45.9085C44.1232 46.5366 44.24 47.3253 44.2807 48.1788C44.3323 49.021 44.536 49.7393 45.0847 50.1788C45.617 50.6323 46.6492 50.683 47.3119 51.0294C47.9773 51.3759 48.2272 52.0575 48.4444 52.7645C48.5395 53.1307 48.602 53.5194 48.5884 53.9729C48.5911 54.4124 48.5477 54.8912 48.3738 55.4714L47.9882 55.7785Z" fill="#91B9FB"/>
<path d="M45.087 58.1221C43.7562 56.3503 44.0604 53.7927 45.7688 52.4125C47.4772 51.0294 49.9433 51.3477 51.2742 53.1195C52.6051 54.8912 52.3009 57.4489 50.5925 58.8291C48.8841 60.2121 46.4206 59.8938 45.087 58.1221Z" fill="#ADCCFF"/>
<path d="M10.6532 56.0884C10.3979 55.2969 10.3191 54.6434 10.311 54.0406C10.2784 53.4209 10.3517 52.8828 10.4685 52.3786C10.7429 51.4012 11.0634 50.4576 11.9651 49.9591C12.8641 49.4605 14.2765 49.3562 14.9935 48.714C15.7296 48.0915 15.9903 47.1 16.031 45.9423C16.0582 44.7734 16.1913 43.6861 16.6041 42.8129C16.9491 41.8861 17.2804 40.9538 17.9159 40.2525C18.5569 39.5539 19.3555 38.9792 20.3197 38.5286C21.2676 38.0666 22.3948 37.7427 23.8207 37.6469L24.3612 38.061C24.6899 39.5032 24.7197 40.7144 24.5676 41.7904C24.4345 42.8777 24.1385 43.8382 23.6795 44.6776C23.2177 45.5142 22.4545 46.1142 21.6995 46.7254C21.015 47.3902 20.0535 47.8409 18.9807 48.207C17.9241 48.5873 17.0876 49.1309 16.7263 50.0436C16.3434 50.9393 16.6585 52.373 16.4629 53.4096C16.2673 54.449 15.4905 55.0405 14.6676 55.6011C14.2357 55.8659 13.7631 56.0968 13.1792 56.2433C12.6224 56.4095 11.995 56.5222 11.1911 56.4996L10.6532 56.0884Z" fill="#91B9FB"/>
<path d="M7.771 51.2914C9.53915 48.8155 12.9098 48.2943 15.2999 50.128C17.6873 51.9618 18.1898 55.4574 16.4216 57.9361C14.6534 60.4121 11.2828 60.9332 8.8927 59.0995C6.50528 57.263 6.00284 53.7674 7.771 51.2914Z" fill="#ADCCFF"/>
<path d="M30.3634 53.3899C41.2687 53.3899 50.1091 44.2216 50.1091 32.912C50.1091 21.6023 41.2687 12.434 30.3634 12.434C19.4581 12.434 10.6177 21.6023 10.6177 32.912C10.6177 44.2216 19.4581 53.3899 30.3634 53.3899Z" fill="#ADCCFF"/>
<path d="M15.7441 24.4278C17.0098 22.656 19.4217 22.2814 21.1301 23.594C22.8385 24.9066 23.197 27.408 21.9313 29.1797C20.6656 30.9515 18.2538 31.3233 16.5454 30.0135C14.837 28.7008 14.4784 26.1995 15.7441 24.4278ZM28.4471 39.3257C29.232 38.2272 30.7232 37.999 31.7824 38.8103C32.8417 39.6243 33.0617 41.1707 32.2795 42.2693C31.4973 43.3678 30.0034 43.596 28.9442 42.7848C27.8849 41.9707 27.6622 40.4215 28.4471 39.3257ZM36.3318 29.8276C37.6382 27.9967 40.1289 27.6136 41.8943 28.9684C43.6597 30.3233 44.0291 32.9063 42.7227 34.7372C41.4163 36.5681 38.9257 36.9512 37.1602 35.5963C35.3948 34.2415 35.0254 31.6585 36.3318 29.8276ZM30.3728 22.4447C31.0192 21.5377 32.2523 21.3491 33.1241 22.0195C33.996 22.6899 34.1807 23.9687 33.5343 24.8728C32.8878 25.7798 31.6548 25.9686 30.7829 25.2982C29.9111 24.6278 29.7264 23.3517 30.3728 22.4447Z" fill="#91B9FB"/>
</svg>
