<svg width="86" height="90" viewBox="0 0 86 90" fill="none" xmlns="http://www.w3.org/2000/svg">
<path d="M41.8021 72.717C56.693 72.717 68.7645 60.1979 68.7645 44.7548C68.7645 29.3118 56.693 16.7927 41.8021 16.7927C26.9113 16.7927 14.8398 29.3118 14.8398 44.7548C14.8398 60.1979 26.9113 72.717 41.8021 72.717Z" fill="#F1F6FF"/>
<path d="M72.2432 18.449C74.1663 18.449 75.7252 16.8322 75.7252 14.8378C75.7252 12.8435 74.1663 11.2267 72.2432 11.2267C70.3202 11.2267 68.7612 12.8435 68.7612 14.8378C68.7612 16.8322 70.3202 18.449 72.2432 18.449Z" fill="#F1F6FF"/>
<path d="M17.086 13.4182C19.0091 13.4182 20.568 11.8015 20.568 9.80709C20.568 7.81273 19.0091 6.19598 17.086 6.19598C15.163 6.19598 13.604 7.81273 13.604 9.80709C13.604 11.8015 15.163 13.4182 17.086 13.4182Z" fill="#F1F6FF"/>
<path d="M51.0611 85.8882C51.0611 88.0318 49.3853 89.7669 47.3211 89.7669C45.2542 89.7669 43.5811 88.029 43.5811 85.8882C43.5811 83.7446 45.2569 82.0095 47.3211 82.0095C49.3853 82.0067 51.0611 83.7446 51.0611 85.8882Z" fill="#F1F6FF"/>
<path d="M47.9777 6.19879C47.9777 9.26626 45.5795 11.7535 42.6217 11.7535C39.6639 11.7535 37.2656 9.26626 37.2656 6.19879C37.2656 3.13132 39.6639 0.644106 42.6217 0.644106C45.5795 0.64129 47.9777 3.1285 47.9777 6.19879Z" fill="#F1F6FF"/>
<path d="M42.9556 6.19879C43.6102 6.67483 44.0475 7.15086 44.3979 7.6269C44.7808 8.10294 45.028 8.57896 45.2208 9.055C45.5603 10.0071 45.8428 10.9591 45.4055 11.9084C44.9709 12.8605 43.9008 13.8125 43.6944 14.7618C43.4608 15.7139 43.8193 16.6659 44.4494 17.618C45.0959 18.5701 45.6092 19.5221 45.7776 20.4714C46.0302 21.4235 46.2991 22.3755 46.1904 23.3248C46.0763 24.2769 45.7667 25.2289 45.2507 26.1782C44.7563 27.1303 44.0393 28.0823 42.9556 29.0316H42.2875C41.2011 28.0795 40.4867 27.1274 39.9924 26.1782C39.4791 25.2261 39.1667 24.2741 39.0526 23.3248C38.944 22.3727 39.2129 21.4207 39.4655 20.4714C39.6339 19.5193 40.1472 18.5673 40.7936 17.618C41.4211 16.6659 41.7796 15.7139 41.5487 14.7618C41.3423 13.8097 40.2722 12.8577 39.8376 11.9084C39.4003 10.9563 39.6828 10.0043 40.0223 9.055C40.2178 8.57896 40.465 8.10294 40.8452 7.6269C41.1956 7.15086 41.6329 6.67483 42.2875 6.19879H42.9556Z" fill="#F1F6FF"/>
<path d="M80.5763 43.231C77.6185 43.231 75.2202 40.7437 75.2202 37.6763C75.2202 34.6088 77.6185 32.1216 80.5763 32.1216C83.5341 32.1216 85.9323 34.6088 85.9323 37.6763C85.9323 40.7437 83.5341 43.231 80.5763 43.231Z" fill="#F1F6FF"/>
<path d="M80.5764 38.0227C80.1174 38.7016 79.6584 39.1551 79.1994 39.5213C78.7404 39.9156 78.2813 40.1748 77.8223 40.3747C76.9043 40.7268 75.9863 41.0198 75.0683 40.5663C74.1502 40.1156 73.2322 39.0058 72.3169 38.7917C71.3989 38.5495 70.4808 38.9213 69.5655 39.5748C68.6475 40.2452 67.7295 40.7775 66.8142 40.9522C65.8962 41.2141 64.9781 41.493 64.0628 41.3803C63.1448 41.262 62.2268 40.9409 61.3115 40.4057C60.3934 39.8931 59.4754 39.1494 58.5601 38.0256V37.3326C59.4781 36.2059 60.3961 35.4651 61.3115 34.9524C62.2295 34.4201 63.1475 34.0961 64.0628 33.9778C64.9808 33.8652 65.8989 34.144 66.8142 34.406C67.7322 34.5806 68.6502 35.113 69.5655 35.7834C70.4836 36.4341 71.4016 36.8059 72.3169 36.5665C73.235 36.3524 74.153 35.2426 75.0683 34.7919C75.9863 34.3384 76.9043 34.6313 77.8223 34.9834C78.2813 35.1862 78.7404 35.4426 79.1994 35.8369C79.6584 36.2003 80.1174 36.6538 80.5764 37.3354V38.0227Z" fill="#F1F6FF"/>
<path d="M6.07529 37.3721C9.03308 37.3721 11.4313 39.8593 11.4313 42.9268C11.4313 45.9942 9.03308 48.4814 6.07529 48.4814C3.11751 48.4814 0.719238 45.9942 0.719238 42.9268C0.719238 39.8593 3.11751 37.3721 6.07529 37.3721Z" fill="#F1F6FF"/>
<path d="M3.39697 42.5831C3.85599 41.9042 4.31495 41.4507 4.77397 41.0846C5.23298 40.6902 5.69201 40.4311 6.15103 40.2311C7.06905 39.879 7.98705 39.586 8.90236 40.0395C9.82039 40.4902 10.7384 41.6 11.6538 41.8141C12.5718 42.0563 13.4898 41.6845 14.4051 41.031C15.3231 40.3606 16.2412 39.8283 17.1565 39.6536C18.0745 39.3917 18.9925 39.1128 19.9078 39.2255C20.8259 39.3438 21.7439 39.6649 22.6592 40.2001C23.5773 40.7127 24.4953 41.4564 25.4133 42.5803V43.2732C24.4953 44.3999 23.5773 45.1407 22.6592 45.6534C21.7412 46.1857 20.8231 46.5097 19.9078 46.628C18.9898 46.7407 18.0718 46.4618 17.1565 46.1998C16.2385 46.0252 15.3204 45.4928 14.4051 44.8224C13.4871 44.1717 12.5691 43.7999 11.6538 44.0394C10.7357 44.2534 9.81767 45.3632 8.90236 45.8139C7.98433 46.2674 7.06634 45.9745 6.15103 45.6224C5.69201 45.4196 5.23298 45.1632 4.77397 44.7689C4.31495 44.4055 3.85599 43.952 3.39697 43.2704V42.5831ZM8.71225 23.367C9.42385 22.9896 10.035 22.8149 10.6053 22.7163C11.1893 22.5896 11.7108 22.5868 12.2078 22.6318C13.1775 22.7699 14.12 22.9558 14.7256 23.8036C15.3313 24.6487 15.6382 26.074 16.3525 26.7105C17.0533 27.3697 18.0311 27.488 19.1365 27.3612C20.2501 27.2147 21.3012 27.1922 22.1894 27.4852C23.1182 27.6992 24.0553 27.902 24.813 28.4485C25.5708 28.9978 26.2336 29.7301 26.8012 30.6484C27.3797 31.5469 27.8523 32.6511 28.1538 34.0905L27.8388 34.7017C26.5188 35.2482 25.3725 35.4566 24.3296 35.4623C23.2785 35.4876 22.3225 35.3242 21.4587 34.9806C20.5978 34.6341 19.9133 33.9412 19.2234 33.2624C18.4928 32.6624 17.9224 31.7441 17.4172 30.7047C16.9012 29.6822 16.2602 28.9076 15.3422 28.6738C14.435 28.4147 13.1231 28.9499 12.1073 28.8992C11.0915 28.8541 10.4152 28.1471 9.76339 27.3894C9.44833 26.9866 9.16042 26.5387 8.93498 25.9641C8.69597 25.4205 8.49499 24.7951 8.39721 23.9726L8.71225 23.367ZM75.6848 57.9571C75.1687 58.2303 74.7287 58.357 74.3159 58.4275C73.8922 58.5176 73.5146 58.5204 73.1561 58.4866C72.4554 58.388 71.7737 58.2528 71.3337 57.6388C70.8964 57.0275 70.6736 55.9966 70.1576 55.5346C69.6497 55.0558 68.9435 54.9713 68.1423 55.0642C67.3356 55.1684 66.5752 55.1853 65.9315 54.9741C65.2606 54.8192 64.5816 54.6727 64.0329 54.2783C63.4843 53.8812 63.0063 53.3488 62.5934 52.6869C62.1751 52.0362 61.8329 51.239 61.6156 50.1968L61.8438 49.7546C62.7998 49.3603 63.6282 49.2081 64.3833 49.2025C65.1437 49.1856 65.8364 49.3011 66.4611 49.5518C67.0831 49.8025 67.5801 50.3039 68.0798 50.794C68.6095 51.2278 69.0196 51.8925 69.3863 52.6446C69.7584 53.3826 70.2228 53.946 70.8883 54.115C71.5455 54.3009 72.4934 53.915 73.2268 53.9516C73.9628 53.9854 74.4517 54.4952 74.9216 55.0445C75.1497 55.3346 75.3588 55.6614 75.5218 56.0755C75.6956 56.4698 75.8396 56.9205 75.9102 57.5176L75.6848 57.9571ZM61.5776 12.6858C61.9416 13.4238 62.1099 14.0576 62.205 14.6491C62.3272 15.2547 62.3299 15.7955 62.2865 16.311C62.1534 17.3166 61.9741 18.294 61.1566 18.9221C60.3418 19.5503 58.9674 19.8686 58.3536 20.6094C57.7181 21.3361 57.604 22.3502 57.7262 23.4966C57.8674 24.6515 57.8892 25.7416 57.6067 26.6627C57.4003 27.626 57.2048 28.5978 56.6778 29.3837C56.1482 30.1695 55.442 30.8568 54.5566 31.4455C53.6902 32.0455 52.6255 32.5356 51.2376 32.8483L50.6482 32.5244C50.1213 31.1554 49.9202 29.9667 49.9148 28.8851C49.8904 27.795 50.048 26.8035 50.3793 25.9078C50.7134 25.0148 51.3815 24.305 52.0361 23.5896C52.6146 22.8318 53.5 22.2403 54.5023 21.7164C55.4882 21.1812 56.2351 20.5164 56.4605 19.5644C56.7104 18.6236 56.1944 17.2631 56.2432 16.2096C56.2867 15.1561 56.9685 14.4547 57.6991 13.7787C58.0875 13.452 58.5193 13.1534 59.0734 12.9196C59.5976 12.6717 60.2005 12.4633 60.9936 12.3619L61.5776 12.6858Z" fill="#F1F6FF"/>
<path d="M61.9069 79.1815C60.0871 76.7619 60.5054 73.2719 62.8385 71.3847C65.1716 69.4974 68.5368 69.9312 70.3565 72.3508C72.1763 74.7704 71.758 78.2604 69.4249 80.1477C67.0918 82.0321 63.7267 81.6011 61.9069 79.1815Z" fill="#F1F6FF"/>
<path d="M65.8663 75.9788C65.0677 76.0211 64.4403 75.9253 63.8808 75.7732C63.2969 75.6408 62.8215 75.4239 62.3843 75.1733C61.5531 74.6381 60.7655 74.0691 60.5455 73.0409C60.3228 72.0128 60.6025 70.5819 60.2033 69.6974C59.823 68.7989 58.9756 68.2778 57.9164 67.9257C56.8408 67.5877 55.8739 67.1652 55.1758 66.5201C54.4126 65.9314 53.6358 65.3511 53.1578 64.5315C52.6825 63.709 52.3647 62.7597 52.2072 61.6809C52.0334 60.6161 52.0334 59.4077 52.3267 57.9656L52.8536 57.5402C54.2741 57.5994 55.404 57.8923 56.3573 58.3261C57.327 58.7486 58.1364 59.3007 58.7909 59.9796C59.4401 60.6612 59.7932 61.5823 60.1571 62.4949C60.589 63.3512 60.7492 64.4301 60.8035 65.5934C60.8714 66.7455 61.1539 67.7229 61.9008 68.3257C62.6287 68.9454 64.0356 69.013 64.9428 69.4862C65.8526 69.9566 66.1921 70.8889 66.4909 71.8551C66.6186 72.3537 66.7082 72.886 66.6892 73.5057C66.6946 74.1057 66.6322 74.7592 66.3959 75.5507L65.8663 75.9788Z" fill="#F1F6FF"/>
<path d="M10.9532 69.8495C13.3678 66.4665 17.9715 65.7567 21.2308 68.2608C24.4927 70.7649 25.1772 75.5394 22.7626 78.9195C20.348 82.3024 15.7443 83.0123 12.4851 80.5082C9.22309 78.004 8.5386 73.2324 10.9532 69.8495Z" fill="#F1F6FF"/>
<path d="M21.8394 33.1694C23.5668 30.7498 26.8614 30.24 29.1945 32.0314C31.5276 33.8229 32.0192 37.2397 30.2917 39.6593C28.5643 42.0789 25.2698 42.5887 22.9367 40.7972C20.6009 39.0058 20.112 35.589 21.8394 33.1694ZM39.1868 53.5122C40.257 52.0137 42.294 51.6982 43.7389 52.808C45.1839 53.9178 45.4881 56.0332 44.418 57.5289C43.3478 59.0274 41.3108 59.3429 39.8658 58.2331C38.4209 57.1233 38.1167 55.0107 39.1868 53.5122ZM49.9533 40.5466C51.7378 38.0481 55.1383 37.5213 57.5474 39.372C59.9565 41.2226 60.4644 44.7492 58.68 47.2477C56.8955 49.7461 53.495 50.2729 51.0859 48.4223C48.674 46.5716 48.1689 43.045 49.9533 40.5466ZM41.8187 30.4625C42.7015 29.2259 44.3854 28.9668 45.5777 29.8822C46.7701 30.7977 47.02 32.5441 46.1372 33.7807C45.2545 35.0172 43.5705 35.2764 42.3782 34.3609C41.1858 33.4455 40.9333 31.6991 41.8187 30.4625Z" fill="#E1ECFD"/>
<path d="M14.8879 76.4013C14.5402 75.3225 14.4316 74.4268 14.4207 73.6043C14.3746 72.7564 14.4778 72.0241 14.638 71.334C15.0129 69.9988 15.4501 68.7087 16.6832 68.0299C17.9109 67.3482 19.8393 67.2046 20.8171 66.3314C21.8247 65.4807 22.1751 64.1258 22.2348 62.5456C22.2701 60.9485 22.4549 59.4641 23.0171 58.2726C23.487 57.0078 23.9405 55.7318 24.8097 54.7769C25.6842 53.8249 26.7761 53.039 28.0934 52.4249C29.3862 51.794 30.9262 51.3517 32.8709 51.2222L33.607 51.7883C34.0552 53.7573 34.0958 55.4107 33.8894 56.8783C33.7074 58.3627 33.3028 59.6753 32.6781 60.8217C32.0479 61.9625 31.005 62.785 29.9756 63.6188C29.0413 64.5258 27.7267 65.1399 26.2628 65.6412C24.8205 66.1595 23.6771 66.9032 23.1855 68.151C22.664 69.3763 23.0931 71.3311 22.8242 72.748C22.558 74.1676 21.4961 74.9761 20.3744 75.7394C19.785 76.0999 19.1385 76.4154 18.3427 76.6154C17.5822 76.8436 16.7239 76.9985 15.6267 76.9675L14.8879 76.4013Z" fill="#F1F6FF"/>
</svg>
