<svg width="357" height="476" viewBox="0 0 357 476" fill="none" xmlns="http://www.w3.org/2000/svg">
<path d="M170.006 183.522C169.845 186.857 169.75 190.125 169.707 193.333C172.165 196.034 174.615 198.747 177.086 201.429C186.715 211.876 197.153 222.287 210.266 227.819C224.68 233.898 239.689 228.281 254.988 228.444C329.721 229.247 340.387 165.225 336.611 140.102C332.151 110.599 309.451 90.4024 309.206 74.6623C308.965 58.9221 295.841 22.1688 265.231 5.9357C239.686 -7.65526 228.056 4.2907 201.126 37.3484C191.367 49.3423 184.004 54.973 177.698 58.9277C166.597 65.919 158.677 67.8034 146.471 90.2644C127.345 125.477 172.236 136.215 170.006 183.522Z" fill="#294330"/>
<path d="M219.468 148.096C171.389 165.937 43.7992 354.211 93.1771 396.127C124.162 422.43 172.863 347.574 172.863 347.574C172.863 347.574 266.054 130.809 219.468 148.096Z" fill="#4285F4"/>
<path d="M356.17 344.952V419.52C356.17 450.491 331.878 475.684 302.014 475.684H145.784C150.497 384.73 169.878 143.02 242.682 142.828C276.891 142.741 319.959 229.641 356.17 344.952Z" fill="#7DA6EA"/>
<path opacity="0.5" d="M336.435 355.557C328.355 359.427 319.979 362.574 311.494 365.334C303.845 367.821 296.113 369.928 288.369 372.063C281.223 374.035 274.105 376.246 267.263 379.178C263.971 380.59 260.725 382.17 257.689 384.111C255.296 385.637 252.965 387.426 251.173 389.694C252.333 390.139 253.539 390.446 254.753 390.679C258.286 391.353 261.915 391.479 265.5 391.465C269.677 391.446 273.849 391.181 278.01 390.82C285.42 390.175 292.875 389.392 300.233 388.265C304.641 387.589 309.125 386.775 313.596 387.167C317.961 387.55 321.959 389.325 325.09 392.527C330.468 398.031 332.663 407.07 330.843 414.619C329.982 418.185 328.01 421.596 325.088 423.748C322.116 425.937 318.496 426.841 315.351 428.7C313.74 429.652 312.257 430.914 311.38 432.638C310.562 434.244 310.483 436.156 310.549 437.934C310.703 442.148 311.784 446.252 312.298 450.42C313.131 457.175 311.298 464.206 307.778 469.898C306.488 471.983 304.983 473.901 303.332 475.676C332.587 474.946 356.167 450.043 356.167 419.529V344.96C356.105 344.757 356.04 344.557 355.977 344.355C349.736 348.566 343.204 352.315 336.435 355.557Z" fill="#ADCCFF"/>
<path d="M1.58033 160.52C1.86008 161.219 2.17515 161.825 2.46305 162.275C2.52552 162.368 2.5744 162.45 2.62872 162.52C3.96774 164.388 5.39095 166.177 6.76527 167.785C10.4455 172.126 13.732 175.221 13.732 175.221C13.732 175.221 22.5157 207.606 25.0851 211.101C28.9636 213.6 44.8009 204.696 44.8009 204.696C46.2893 200.871 33.6597 169.664 32.4347 163.14C31.2016 156.614 27.1982 149.921 27.1982 149.921C27.1982 149.921 18.4715 116.849 11.2658 118.914C8.06085 119.829 13.6288 136.209 15.0628 142.69C15.071 142.744 15.09 142.797 15.0981 142.851C15.0873 142.84 12.4174 141.589 10.5243 143.549C9.59814 144.504 9.48949 145.42 9.48949 145.42C9.48949 145.42 7.75394 145.242 6.68653 145.915C5.61369 146.592 4.3507 148.22 4.52725 148.817C4.50552 148.822 2.97909 148.583 1.97686 149.842C0.971923 151.096 1.18108 153.535 1.18108 153.535L1.19464 153.529C1.09414 153.811 1.00181 154.09 0.933908 154.366C0.415141 156.515 0.904032 158.819 1.58033 160.52Z" fill="#EADAAC"/>
<path opacity="0.2" d="M1.58036 160.52C1.72974 160.222 1.92803 159.957 2.20507 159.754C3.42729 158.853 4.60606 159.833 5.3584 160.737C5.79841 161.267 6.15962 161.895 6.66209 162.371C7.09123 162.788 7.72951 163.053 8.29988 163.225C13.1698 164.746 20.9024 160.264 19.5552 154.597C19.0039 152.276 18.2271 149.918 17.3688 147.718C16.649 145.882 16.1602 144.485 15.1036 142.854C15.0928 142.842 12.4228 141.592 10.5298 143.552C9.60358 144.507 9.49495 145.423 9.49495 145.423C9.49495 145.423 7.75938 145.245 6.69197 145.918C5.61912 146.594 4.35617 148.222 4.53271 148.82C4.51098 148.825 2.98456 148.586 1.98233 149.845C0.97739 151.098 1.18655 153.538 1.18655 153.538L1.20011 153.532C1.09961 153.814 1.00728 154.093 0.939375 154.369C0.415176 156.515 0.904062 158.819 1.58036 160.52Z" fill="white"/>
<path opacity="0.1" d="M4.63965 159.732C7.30138 165.106 10.615 165.548 12.0165 165.464C15.3436 163.616 18.2688 161.275 19.4394 159.326C20.2597 157.966 20.0017 155.431 19.2629 152.676C19.3281 152.819 19.3987 152.963 19.4612 153.107C20.534 155.526 21.6313 158.363 21.1261 161.078C20.6291 163.757 18.4671 165.495 16.058 166.247C14.1214 166.853 12.0545 166.951 10.0229 166.802L10.0201 166.805C10.0147 166.805 10.012 166.802 10.0066 166.802C9.81646 166.788 9.62634 166.774 9.43621 166.757C9.48239 166.737 9.52584 166.715 9.57202 166.695C6.22855 165.726 4.63965 159.732 4.63965 159.732Z" fill="#1F2320"/>
<path d="M11.9286 164.788C10.7797 163.281 9.98934 162.008 9.08761 160.351C8.18317 158.656 7.40365 156.859 7.04785 154.957C7.53131 156.828 8.41674 158.535 9.41896 160.143C10.4321 161.74 12.7244 164.56 12.7244 164.56C13.3328 164.385 15.158 163.072 15.9158 162.464C15.9538 162.436 15.9891 162.402 16.0271 162.374C14.9869 160.743 14.0145 159.087 13.1128 157.38C12.2083 155.65 11.3528 153.876 10.8041 151.991C11.475 153.831 12.4392 155.523 13.4469 157.174C14.4437 158.788 15.5165 160.36 16.6328 161.878C17.1407 161.453 17.6377 161.022 18.0723 160.535C19.2755 159.191 19.7237 158.23 19.4711 155.287C19.3869 154.298 19.1723 153.318 18.9496 152.343C18.7486 151.36 18.4797 150.394 18.2163 149.42C19.0501 151.25 19.6884 153.18 20.0605 155.194C20.2397 156.202 20.3429 157.245 20.1773 158.321C20.1175 158.588 20.0849 158.861 19.96 159.118L19.7997 159.506L19.5933 159.853C19.4602 160.089 19.3054 160.301 19.1397 160.501C18.9822 160.712 18.8165 160.909 18.6373 161.089C17.2222 162.574 15.5708 163.709 13.8679 164.706C12.1595 165.698 10.3506 166.078 8.12884 164.196C9.51403 165.224 11.5701 165.013 11.9286 164.788Z" fill="#FBBC05"/>
<path opacity="0.1" d="M13.8276 174.855C16.6415 176.139 21.3864 174.571 25.58 172.68C28.766 171.244 30.9198 168.475 32.305 165.934C32.2153 166.588 32.1067 167.241 31.9492 167.892C31.5363 169.59 30.1131 177.046 25.8272 178.52C19.1294 180.824 15.441 175.438 13.9363 175.125C13.8983 175.038 13.8602 174.948 13.8276 174.855Z" fill="#1F2320"/>
<path opacity="0.1" d="M19.3874 150.665C19.3874 150.665 19.1918 152.831 21.0252 152.974C22.8585 153.118 24.8603 149.986 26.7669 154.738C28.6763 159.49 32.2941 164.577 31.7944 160.408C31.2973 156.239 30.1457 148.882 27.2124 148.532C24.279 148.183 19.3874 150.665 19.3874 150.665Z" fill="#1F2320"/>
<path d="M32.4343 163.143C32.4343 163.143 34.9765 152.036 34.2676 148.67C33.5587 145.307 28.6291 142.265 26.1493 142.609C23.8597 142.924 19.7639 147.166 19.2016 148.921C18.6394 150.676 18.3597 153.019 22.7597 151.493C27.1597 149.966 27.7246 151.135 27.7246 151.135L32.4343 163.143Z" fill="#DBCA9A"/>
<path opacity="0.2" d="M22.1357 148.394C22.1357 148.394 20.1693 150.904 19.5636 150.848C18.9579 150.789 19.4278 148.456 20.2589 147.825C21.09 147.194 22.1357 148.394 22.1357 148.394Z" fill="white"/>
<path d="M37.8292 171.351C37.8292 171.351 136.189 304.272 128.88 368.725C125.43 399.144 108.884 417.095 74.7405 380.232C40.5969 343.369 14.7129 184.576 14.7129 184.576L37.8292 171.351Z" fill="#91B9FB"/>
<path d="M259.387 146.476C259.387 151.048 251.339 154.752 241.415 154.752C231.49 154.752 223.442 151.048 223.442 146.476C223.442 141.904 231.49 138.2 241.415 138.2C251.339 138.2 259.387 141.907 259.387 146.476Z" fill="#34A853"/>
<path d="M282.003 81.4197C279.338 76.0312 274.501 77.5748 271.76 79.0452C271.638 67.5077 270.324 58.7052 270.324 58.7052C270.229 58.0855 270.041 57.4996 269.759 56.9447C264.226 46.579 223.806 46.1875 215.6 55.7392C214.816 56.618 214.343 57.6292 214.185 58.7052C214.185 58.7052 212.952 67.5527 212.925 79.1325C210.215 77.6368 205.241 75.927 202.525 81.4197C198.734 89.087 207.257 100.498 214.452 100.182C217.241 117.117 224.593 132.801 242.256 132.801C260.261 132.801 267.64 117.128 270.362 100.196C277.494 100.208 285.745 88.9856 282.003 81.4197Z" fill="#F4E5BA"/>
<path d="M223.529 53.7815C223.529 53.7815 247.417 66.5922 272.163 61.4319C296.912 56.2715 236.743 33.7345 222.217 41.2102C207.694 48.686 210.096 66.012 210.096 66.012C210.096 66.012 222 63.8092 223.529 53.7815Z" fill="#294330"/>
<path d="M253.861 143.845C253.861 143.845 249.271 151.003 241.33 151.003C233.391 151.003 227.747 144.056 227.747 144.056C227.747 144.056 228.054 136.688 228.301 130.499C228.447 126.39 228.578 122.795 228.578 122.19H253.652L253.756 132.803L253.861 143.845Z" fill="#EA4335"/>
<path opacity="0.1" d="M253.759 132.803C249.812 136.215 245.543 138.428 242.251 138.428C238.258 138.428 232.851 135.184 228.301 130.496C228.448 126.387 228.578 122.793 228.578 122.187H253.653L253.759 132.803Z" fill="#3C5142"/>
<path d="M240.882 99.3119C239.901 97.0134 241.343 94.4023 241.408 94.2896C241.696 93.7798 242.329 93.6051 242.824 93.9037C243.321 94.1995 243.486 94.8558 243.201 95.3712C242.919 95.8783 242.337 97.4162 242.805 98.4979C243.171 99.2781 244.119 99.7908 245.621 100.016C246.186 100.101 246.583 100.644 246.498 101.236C246.417 101.824 245.89 102.23 245.322 102.146C243.092 101.808 241.615 100.892 240.933 99.4246C240.914 99.388 240.898 99.3513 240.882 99.3119Z" fill="#294330"/>
<path d="M260.307 85.4195C260.307 87.3011 259.06 88.8194 257.531 88.8194C256.002 88.8194 254.755 87.3011 254.755 85.4195C254.755 83.5408 256.002 82.0112 257.531 82.0112C257.96 82.0112 258.365 82.1295 258.728 82.3549C258.185 82.5239 257.781 83.1267 257.781 83.8478C257.781 84.6956 258.348 85.3914 259.044 85.3914C259.554 85.3914 260 85.0139 260.192 84.4759C260.266 84.7801 260.307 85.0928 260.307 85.4195ZM231.769 84.9857C231.769 86.8674 230.522 88.3856 228.993 88.3856C227.464 88.3856 226.217 86.8674 226.217 84.9857C226.217 83.107 227.464 81.5775 228.993 81.5775C229.422 81.5775 229.827 81.6958 230.191 81.9211C229.648 82.0901 229.243 82.6929 229.243 83.414C229.243 84.2618 229.811 84.9576 230.506 84.9576C231.017 84.9576 231.462 84.5801 231.655 84.0421C231.728 84.3492 231.769 84.659 231.769 84.9857Z" fill="#294330"/>
<path d="M279.795 88.0871C279.996 88.0871 280.188 87.9603 280.265 87.7547C281.989 83.1859 277.578 80.479 277.532 80.4536C277.288 80.3071 276.984 80.3973 276.842 80.6451C276.704 80.8958 276.785 81.2141 277.027 81.3606C277.179 81.4536 280.729 83.6478 279.325 87.3716C279.224 87.642 279.352 87.9462 279.61 88.0504C279.67 88.0758 279.732 88.0871 279.795 88.0871Z" fill="#294330"/>
<path d="M204.087 88.1321C203.886 88.1321 203.693 88.0054 203.617 87.7997C201.892 83.2309 206.303 80.524 206.349 80.4986C206.594 80.3522 206.898 80.4423 207.039 80.6902C207.178 80.9409 207.096 81.2592 206.855 81.4057C206.703 81.4986 203.153 83.6929 204.557 87.4167C204.657 87.6871 204.53 87.9913 204.272 88.0955C204.212 88.1209 204.149 88.1321 204.087 88.1321Z" fill="#294330"/>
<path d="M272.162 78.8367L271.475 78.2339L268.968 90.6362L242.698 98.7936L215.644 91.2334L212.925 78.9494L211.706 78.5269L212.681 100.194C212.681 108.193 218.979 133.657 242.688 133.677C263.218 133.691 272.741 109.334 272.119 100.194L272.162 78.8367Z" fill="#E1ECFD"/>
<path d="M214.792 93.7573L243.074 101.686L269.281 93.7573C269.281 93.7573 269.718 129.953 242.963 129.953C216.212 129.953 214.792 93.7573 214.792 93.7573Z" fill="white"/>
<path d="M250.073 68.5752C249.12 69.3555 253.064 76.4594 259.819 76.9749C266.576 77.4931 261.416 76.6425 256.584 72.4398C251.752 68.2344 251.63 67.302 250.073 68.5752ZM233.188 68.5752C234.141 69.3555 230.197 76.4594 223.443 76.9749C216.685 77.4931 221.845 76.6425 226.677 72.4398C231.509 68.2344 231.631 67.302 233.188 68.5752Z" fill="#294330"/>
</svg>
