<svg width="258" height="309" viewBox="0 0 258 309" fill="none" xmlns="http://www.w3.org/2000/svg">
<path d="M161.087 118.296L29.2879 114.865L14.5913 300.316L155.335 308.299L161.087 118.296Z" fill="white"/>
<path d="M134.45 100.809L4.04395 120.921L20.2941 306.231L160.266 289.012L134.45 100.809Z" fill="#E1ECFD"/>
<path d="M64.6315 177.848L26.1232 183.364L25.3682 175.285L63.7569 169.733L64.6315 177.848Z" fill="#91B9FB"/>
<path d="M91.9769 173.93L67.8366 177.389L66.9512 169.271L91.0154 165.79L91.9769 173.93Z" fill="#91B9FB"/>
<path d="M131.007 168.336L94.7255 173.536L93.7559 165.393L129.923 160.162L131.007 168.336Z" fill="#91B9FB"/>
<path d="M56.3309 195.287L27.6195 199.326L26.8535 191.152L55.4754 187.087L56.3309 195.287Z" fill="#91B9FB"/>
<path d="M76.6627 192.428L58.715 194.952L57.854 186.749L75.7446 184.211L76.6627 192.428Z" fill="#91B9FB"/>
<path d="M105.604 188.361L78.707 192.143L77.7808 183.921L104.596 180.116L105.604 188.361Z" fill="#91B9FB"/>
<path d="M102.099 220.004L30.4658 229.711L29.6836 221.359L101.089 211.582L102.099 220.004Z" fill="#91B9FB"/>
<path d="M72.597 251.668L33.0105 256.85L32.2119 248.335L71.6735 243.11L72.597 251.668Z" fill="#91B9FB"/>
<path d="M100.717 247.983L75.8918 251.234L74.9575 242.677L99.7035 239.401L100.717 247.983Z" fill="#91B9FB"/>
<path d="M140.863 242.727L103.544 247.614L102.523 239.029L139.722 234.102L140.863 242.727Z" fill="#91B9FB"/>
<path d="M64.1073 269.895L34.5892 273.675L33.7798 265.059L63.2056 261.248L64.1073 269.895Z" fill="#91B9FB"/>
<path d="M85.0176 267.213L66.5593 269.58L65.6494 260.929L84.048 258.546L85.0176 267.213Z" fill="#91B9FB"/>
<path d="M114.786 263.4L87.1177 266.946L86.1426 258.276L113.721 254.701L114.786 263.4Z" fill="#91B9FB"/>
<path d="M69.5525 137.011L69.615 137.306L64.4137 138.087L64.3241 137.794C63.6478 135.63 62.2355 134.774 60.136 135.09C57.6589 135.461 56.0212 137.906 56.4992 142.394C57.0587 147.65 59.3293 149.131 61.6434 148.788C63.6696 148.489 64.8293 146.991 65.0113 144.624L65.0357 144.312L70.2478 143.537L70.2506 143.844C70.3185 148.954 66.918 152.083 61.8987 152.824C56.5426 153.613 51.8547 150.607 51.1159 143.534C50.3636 136.318 54.3915 131.938 59.7612 131.124C65.4296 130.27 68.6915 132.98 69.5525 137.011ZM80.0908 149.709L70.5058 129.929L76.1661 129.076L82.8693 144.996L85.7484 127.628L91.2918 126.791L86.5143 148.762L80.0908 149.709Z" fill="#91B9FB"/>
<path d="M18.4609 269.706L18.4582 269.701C20.1829 269.216 22.5595 268.25 25.9084 266.467C25.9084 266.467 25.8812 266.467 25.8323 266.478C27.5325 265.653 29.2545 264.67 30.9195 263.597C33.8012 261.749 35.8084 260.231 37.1718 259.081C37.1773 259.073 37.1827 259.07 37.1909 259.07C39.1953 257.369 39.8064 256.476 39.8064 256.476C39.8064 256.476 71.9021 248.017 75.5497 245.6C78.3391 241.722 70.1828 227.291 70.1828 227.291C66.5623 225.387 39.2578 237.063 32.9267 235.322C25.5444 233.294 12.855 220.365 11.315 226.181C9.76683 232.004 20.794 237.511 20.794 237.511C20.794 237.511 20.6419 237.519 20.3595 237.553C18.6511 237.742 12.2113 238.626 6.85524 241.443L6.8498 241.446C5.36684 242.237 3.95991 243.172 2.76484 244.288C2.55571 244.488 2.34928 244.685 2.14829 244.891C1.79521 245.257 1.46388 245.651 1.16511 246.062C1.11623 246.127 1.06189 246.197 1.01572 246.268C0.866335 246.474 0.725085 246.685 0.591998 246.902L0.575686 246.927C0.578402 246.933 0.578404 246.933 0.578404 246.941C0.38828 247.612 0.36382 248.468 0.697895 249.558C1.77617 253.07 4.56556 252.637 4.56556 252.637C4.56556 252.637 2.50683 254.563 3.79696 257.259C5.16313 260.126 7.18115 258.972 7.18115 258.972C7.18115 258.972 5.69004 261.664 6.84708 263.881C8.06659 266.222 10.3861 264.836 10.3861 264.836C10.3861 264.836 9.06341 266.585 10.4649 269.34C11.7279 271.813 18.4609 269.706 18.4609 269.706Z" fill="#F4E5BA"/>
<path opacity="0.2" d="M10.8967 258.248C10.8451 258.335 10.8315 258.445 10.9103 258.563C11.7849 259.879 12.5617 261.16 12.5427 262.811C12.5372 263.357 12.5372 263.983 12.9283 264.402C13.1076 264.597 13.3412 264.707 13.5612 264.842C13.8545 265.022 14.0365 265.27 14.2185 265.566C14.8187 266.535 15.2234 267.644 15.4977 268.757C15.6226 269.267 15.7204 269.794 15.7911 270.329C13.7622 270.67 11.2009 270.771 10.473 269.34C9.07151 266.585 10.3943 264.836 10.3943 264.836C10.3943 264.836 8.07477 266.219 6.85526 263.881C5.69822 261.664 7.18933 258.972 7.18933 258.972C7.18933 258.972 5.16859 260.126 3.80513 257.259C2.51501 254.563 4.57373 252.637 4.57373 252.637C4.57373 252.637 1.78434 253.068 0.70607 249.558C0.371995 248.468 0.399172 247.612 0.586579 246.941C0.583863 246.936 0.583861 246.935 0.583861 246.927L0.600173 246.902C0.73326 246.685 0.874511 246.474 1.02389 246.268C1.07007 246.198 1.12433 246.124 1.17322 246.062C1.47199 245.648 1.8061 245.265 2.15647 244.891C2.35746 244.685 2.56388 244.488 2.77302 244.288C2.77573 245.175 3.00928 246.105 3.27545 246.919C3.58236 247.837 4.0197 248.792 4.82094 249.352C5.6602 249.947 6.71945 249.966 7.59946 250.462C8.51748 250.994 8.95477 252.144 8.95477 253.194C8.95477 254.104 8.60984 254.924 8.96564 255.808C9.35947 256.794 10.1742 257.49 10.8831 258.228C10.8831 258.231 10.8886 258.239 10.8967 258.248ZM12.7763 225.59C12.7763 225.59 16.3723 228.528 17.1654 228.303C17.9612 228.077 17.8878 227.041 17.8878 227.041C17.8878 227.041 14.0474 224.815 12.7763 225.59Z" fill="white"/>
<path d="M142.924 1.00261C134.255 24.4776 197.384 159.258 197.384 159.258L36.6694 234.105L42.6339 257.417C42.6339 257.417 208.704 253.448 252.191 194.955C276.97 161.624 205.035 -6.41397 142.924 1.00261Z" fill="#91B9FB"/>
</svg>
