<svg width="598" height="353" viewBox="0 0 598 353" fill="none" xmlns="http://www.w3.org/2000/svg">
<path opacity="0.35" d="M548.459 147.567C528.569 159.777 513.554 176.336 501.34 193.535C488.637 211.427 479.339 230.367 469.698 249.325C460.993 266.442 448.225 283.16 424.589 288.836C410.228 292.284 395.699 290.749 381.021 290.973C373.397 291.091 365.775 291.68 358.357 293.197C349.835 294.936 342.286 297.989 334.499 301.159C307.388 312.203 271.724 308.487 250.833 291.16C240.136 282.288 232.766 271.32 224.859 260.875C215.596 248.642 203.876 238.003 191.652 227.579C179.161 216.923 165.867 206.773 155.192 194.894C145.438 184.041 137.488 172.259 130.132 160.292C126.334 154.114 123.872 147.329 118.973 141.662C72.8689 88.3253 109.259 62.5019 113.365 60.2599C119.197 57.077 38.4341 0.61756 38.4341 0.61756L0.846751 6.53394C0.846751 6.53394 183.042 290.744 280.283 344.687C318.384 365.823 477.121 339.1 523.607 295.069C587.035 234.995 596.42 150.186 597.762 130.549C579.941 132.787 563.089 138.586 548.459 147.567Z" fill="#ACC3EA"/>
</svg>
