<svg width="178" height="194" viewBox="0 0 178 194" fill="none" xmlns="http://www.w3.org/2000/svg">
<path d="M2.02951 67.0195C6.18075 58.4142 18.2602 52.5987 29.7633 53.6635C29.9972 43.1616 31.0767 32.5491 35.1599 22.5112C45.9463 -4.00597 150.649 -1.97747 154.944 5.1658C156.13 7.14206 174.289 57.9256 176.56 76.3297C178.835 94.7308 174.937 114.912 158.752 128.489C146.044 139.151 124.972 143.324 105.575 141.647C111.523 157.305 119.076 178.479 123.882 190.225C111.746 197.678 42.2399 190.81 27.0474 189.821C30.7963 171.079 36.779 109.933 40.5279 91.1935C31.9182 97.4321 18.1018 95.3433 11.6324 91.2488C2.63328 85.5603 -2.12168 75.6217 2.02951 67.0195Z" fill="#FBBC05"/>
</svg>
