<svg width="219" height="207" viewBox="0 0 219 207" fill="none" xmlns="http://www.w3.org/2000/svg">
<path d="M139.576 9.14516C125.008 -0.595955 74.8277 -9.63815 64.6433 26.5757C63.7316 29.8205 59.3119 36.9394 48.659 35.6646C11.7081 31.2437 0.146714 57.8964 0.410239 81.067C0.591075 96.8817 10.5254 111.549 12.7743 127.24C14.3105 137.964 12.2138 148.881 13.4528 159.632C14.9951 172.988 21.8257 185.872 32.7536 196.038C37.2931 200.263 42.7279 204.121 49.4013 205.888C67.1164 210.569 85.1507 199.314 97.6625 188.131C121.288 167.019 140.593 142.914 154.658 117.084C156.364 113.951 157.993 110.798 159.54 107.614C160.949 104.722 161.868 101.261 163.924 98.6052C166.918 94.7386 175.333 94.6673 180.262 93.1543C193.897 88.964 209.765 82.8112 214.074 71.8192C238.925 8.35214 147.412 14.3883 139.576 9.14516Z" fill="#34A853"/>
</svg>
