<svg width="327" height="388" viewBox="0 0 327 388" fill="none" xmlns="http://www.w3.org/2000/svg">
<path opacity="0.35" d="M310.221 109.91C304.836 115.715 299.077 121.413 292.431 126.35C285.731 131.33 278.292 135.648 270.584 139.591C255.387 147.369 239.281 153.969 223.934 161.561C209.984 168.462 195.613 175.817 179.556 179.117C163.366 182.447 147.133 180.26 132.15 175.009C116.082 169.377 101.367 161.18 88.7618 151.571C76.0925 141.911 65.9498 130.638 56.7111 118.834C46.901 106.295 38.4911 93.0712 31.2837 79.4624C18.0028 54.3799 8.56495 27.8544 3.69829 0.832813C-2.54294 17.9652 1.95073 82.8313 6.18984 97.5655C24.4778 161.165 76.7965 214.374 119.569 228.846C125.437 230.833 109.41 385.678 115.464 387.403L212.5 387.137C216.727 385.107 213.484 225.015 218.243 223.858C315.277 200.254 326.923 126.214 326.687 90.1426C321.533 96.905 316.129 103.542 310.221 109.91Z" fill="#ACC3EA"/>
</svg>
