<svg width="189" height="56" viewBox="0 0 189 56" fill="none" xmlns="http://www.w3.org/2000/svg">
<path d="M160.231 40.4336C160.502 40.4329 160.777 40.3989 161.05 40.3226C161.835 40.1057 180.367 34.869 187.96 24.4183C188.648 23.473 188.245 22.2735 187.056 21.7445C185.876 21.2124 184.351 21.5492 183.666 22.4976C177.02 31.6454 159.641 36.5705 159.465 36.6193C158.166 36.9827 157.467 38.1035 157.904 39.1245C158.252 39.934 159.203 40.4364 160.231 40.4336ZM133.701 40.3455C134.587 40.3431 135.451 39.9628 135.907 39.2962C136.164 38.9205 142.256 29.8892 147.197 10.7122C147.475 9.64394 146.607 8.61813 145.265 8.41614C143.92 8.20509 142.612 8.91326 142.338 9.97848C137.562 28.4958 131.61 37.3755 131.552 37.4664C130.897 38.4268 131.339 39.6141 132.543 40.1188C132.912 40.2721 133.308 40.3466 133.701 40.3455ZM101.992 37.7343C103.26 37.7308 104.352 36.9628 104.487 35.9463C104.556 35.4169 106.125 22.7508 100.891 1.71148C100.626 0.647721 99.3292 -0.0352103 97.9779 0.19527C96.6306 0.419691 95.7572 1.46235 96.0217 2.52308C101.096 22.9248 99.5673 35.4728 99.5503 35.5969C99.4135 36.6768 100.401 37.6297 101.767 37.7258C101.84 37.7317 101.916 37.7345 101.992 37.7343ZM61.1308 43.7817C61.3256 43.7811 61.5244 43.7624 61.7197 43.7256C63.0522 43.465 63.8877 42.4012 63.5774 41.3467C63.3254 40.4885 57.2824 20.2346 46.1539 12.0242C45.1595 11.286 43.593 11.3387 42.6465 12.1396C41.7038 12.9375 41.7482 14.1803 42.7427 14.9155C52.7859 22.3274 58.6865 42.0888 58.7449 42.2882C59.0078 43.1856 60.0156 43.7847 61.1308 43.7817ZM26.4456 55.691C26.9918 55.6896 27.5397 55.5459 28.002 55.2544C29.0805 54.571 29.2691 53.3367 28.4212 52.4922C27.8937 51.9645 15.3439 39.5606 4.14276 37.0085C2.83317 36.7006 1.45003 37.3122 1.054 38.3565C0.657984 39.4009 1.39949 40.4876 2.71307 40.7834C12.4294 42.9978 24.4062 54.8408 24.523 54.9614C25.0015 55.444 25.7161 55.693 26.4456 55.691Z" fill="#5370A0"/>
</svg>
