<svg width="435" height="152" viewBox="0 0 435 152" fill="none" xmlns="http://www.w3.org/2000/svg">
<path d="M0.43457 0.130798C17.5371 12.375 34.5123 24.7253 51.4913 37.0695L76.9076 55.6328L102.266 74.2476L127.578 92.8987L152.859 111.574L178.087 130.298C186.497 136.538 194.907 142.775 203.287 149.043L201.294 148.753L230.42 139.477L244.984 134.838L259.562 130.232L288.718 121.021L317.9 111.857C337.351 105.743 356.836 99.6924 376.32 93.6447C395.816 87.6181 415.315 81.6006 434.867 75.6856C415.605 82.1796 396.288 88.5711 376.971 94.9536C357.642 101.315 338.31 107.673 318.948 113.968L289.907 123.418L260.844 132.817L246.31 137.516L231.762 142.186L202.669 151.524C201.967 151.749 201.198 151.619 200.684 151.24L200.676 151.234C192.258 144.999 183.875 138.738 175.491 132.476L150.33 113.698L125.226 94.8711L100.154 76.02L75.1235 57.1325L50.1551 38.1936C33.5391 25.5403 16.9231 12.8901 0.43457 0.130798Z" fill="#4285F4"/>
</svg>
