<svg width="931" height="677" viewBox="0 0 931 677" fill="none" xmlns="http://www.w3.org/2000/svg">
<path d="M883.425 390.349C866.42 423.274 841.826 457.405 809.885 491.364C809.871 491.364 809.871 491.364 809.871 491.364C769.033 534.661 715.016 576.659 651.596 609.66C591.59 640.901 523.175 664.072 449.516 672.618C294.788 691.614 155.606 636.91 78.0543 544.891C2.99341 458.253 -16.9343 342.968 14.2161 241.366C46.874 136.115 117.97 65.4896 197.205 29.8912C277.915 -6.234 366.763 -7.31564 469.101 14.3707C570.47 36.6599 669.693 71.9513 750.52 109.065C830.858 147.663 892.803 188.07 908.184 255.062C917.438 294.418 908.929 341.038 883.425 390.349ZM930.035 519.129C927.979 552.556 906.511 588.531 869.809 611.181C834.028 633.563 793.113 638.69 762.278 634.121C746.786 631.803 733.732 627.445 723.656 621.55C713.579 615.654 706.479 608.221 702.883 599.751C702.489 598.841 702.142 597.923 701.827 596.99C749.627 572.115 790.34 540.46 821.121 507.828C821.121 507.828 821.121 507.828 821.132 507.828C845.207 482.232 863.744 456.506 876.561 431.69C882.841 434.313 889.053 437.749 895.088 442.07C918.207 458.779 932.417 487.299 930.035 519.129Z" fill="#F1F6FF"/>
</svg>
