<svg width="53" height="59" viewBox="0 0 53 59" fill="none" xmlns="http://www.w3.org/2000/svg">
<path opacity="0.1" d="M7.15084 58.1225C8.0502 56.8555 8.92647 55.6095 9.11769 54.1281C9.35977 52.2621 8.37803 50.6367 8.15934 48.82C7.99873 47.4868 8.67702 47.1004 10.11 46.5798C16.9041 44.1101 25.5743 40.698 27.0352 34.1998C28.65 27.0073 18.8118 22.3514 12.875 18.5289C9.2752 16.2108 6.84109 13.7334 4.70639 10.4891C2.81746 7.62569 0.333505 4.33736 0.432467 0.969846C4.11665 1.83383 7.68303 2.97451 11.3552 3.88058C15.6527 4.94414 20.1672 5.7007 24.5997 6.34336C27.7646 6.80326 30.99 7.01671 34.2361 7.09491C40.1462 22.6894 47.5676 43.4702 52.3151 55.0728C46.4524 58.6754 27.1974 58.9296 7.15084 58.1225Z" fill="#1F2320"/>
</svg>
