<svg width="147" height="62" viewBox="0 0 147 62" fill="none" xmlns="http://www.w3.org/2000/svg">
<path d="M5.92089 54.8746C6.52771 54.8729 7.13307 54.6963 7.61488 54.3452C8.62861 53.6065 8.70271 52.3668 7.78224 51.5761C6.17142 50.1932 5.49109 48.8591 5.70041 47.4953C6.13133 44.7074 10.0878 42.5432 10.1301 42.519C11.2681 41.9067 11.5784 40.6904 10.8235 39.7967C10.0723 38.9061 8.52979 38.6751 7.39573 39.2814C7.15738 39.4087 1.51362 42.4521 0.779625 47.0443C0.375003 49.5818 1.49464 52.0065 4.10891 54.2523C4.59174 54.6701 5.253 54.8764 5.92089 54.8746ZM129.881 61.8423C136.499 61.8241 143.66 57.2445 144.569 56.6448C145.574 55.9816 145.769 54.829 145.024 53.9986C138.438 46.6609 121.934 25.9628 124.678 18.3854C127.945 9.36196 144.347 4.64237 144.512 4.59366C145.807 4.2282 146.497 3.1074 146.053 2.08925C145.613 1.06806 144.204 0.541138 142.906 0.900573C142.132 1.11984 123.895 6.3451 119.91 17.355C116.425 26.9853 134.064 48.3648 139.588 54.7343C136.596 56.3681 131.552 58.5624 128.426 57.7507C127.118 57.4104 125.717 57.9692 125.272 58.9958C124.823 60.0255 125.51 61.1335 126.803 61.4707C127.799 61.7334 128.836 61.8451 129.881 61.8423ZM70.6173 21.0368C72.6522 22.6689 80.8283 18.9098 86.0818 14.8118C91.3353 10.7139 91.6834 7.8358 89.6448 6.20074C87.6061 4.5687 83.9583 4.80188 78.7049 8.89679C73.4475 12.9977 68.5787 19.4018 70.6173 21.0368Z" fill="#34A853"/>
</svg>
